/* XPM */
static char *_0a8b36d51ce494886ed89fd1472237b[] = {
/* columns rows colors chars-per-pixel */
"32 32 155 2 ",
"   c None",
".  c #021D7B",
"X  c #001E7E",
"o  c #011F7E",
"O  c #021F7E",
"+  c #02207F",
"@  c #022282",
"#  c #022585",
"$  c #022888",
"%  c #022889",
"&  c #01288B",
"*  c #01298B",
"=  c #032B8C",
"-  c #032B8D",
";  c #032D8F",
":  c #0C2E8A",
">  c #12328D",
",  c #002D91",
"<  c #032E90",
"1  c #022F92",
"2  c #033093",
"3  c #033396",
"4  c #033397",
"5  c #033497",
"6  c #013499",
"7  c #023599",
"8  c #033599",
"9  c #033699",
"0  c #03369A",
"q  c #03399D",
"w  c #1F3E93",
"e  c #013AA0",
"r  c #023BA0",
"t  c #033BA0",
"y  c #033CA0",
"u  c #033CA1",
"i  c #053DA1",
"p  c #033EA4",
"a  c #003FA7",
"s  c #2B4D9E",
"d  c #0140A7",
"f  c #0241A7",
"g  c #0341A7",
"h  c #0940A3",
"j  c #0E44A5",
"k  c #0341A8",
"l  c #0342A8",
"z  c #0344AB",
"x  c #0644A9",
"c  c #0044AD",
"v  c #0347AE",
"b  c #1746A2",
"n  c #0449B0",
"m  c #0449B1",
"M  c #044AB1",
"N  c #014BB4",
"B  c #014BB5",
"V  c #044CB5",
"C  c #044DB5",
"Z  c #044FB8",
"A  c #0450B9",
"S  c #0451BB",
"D  c #0452BB",
"F  c #0452BC",
"G  c #0453BC",
"H  c #0654BD",
"J  c #0455BF",
"K  c #0B58BE",
"L  c #0C58BF",
"P  c #0D59BF",
"I  c #1151B3",
"U  c #234BA1",
"Y  c #3D5CA7",
"T  c #2359B2",
"R  c #3860AF",
"E  c #3168BC",
"W  c #5271B5",
"Q  c #5F7BBA",
"!  c #607CBA",
"~  c #0357C3",
"^  c #0457C2",
"/  c #0458C2",
"(  c #0458C3",
")  c #045AC6",
"_  c #085BC4",
"`  c #005BC9",
"'  c #045DC9",
"]  c #045ECA",
"[  c #0460CC",
"{  c #0460CD",
"}  c #1865C8",
"|  c #1F6AC9",
" . c #0262D0",
".. c #0463D0",
"X. c #0463D1",
"o. c #0464D1",
"O. c #0465D2",
"+. c #0465D3",
"@. c #0466D3",
"#. c #0568D7",
"$. c #0469D7",
"%. c #0569D8",
"&. c #056BDA",
"*. c #046EDE",
"=. c #056EDE",
"-. c #056FDE",
";. c #046EDF",
":. c #056FDF",
">. c #1271DA",
",. c #1473DA",
"<. c #1E79DC",
"1. c #1F79DC",
"2. c #336EC3",
"3. c #2070CF",
"4. c #2B7CD8",
"5. c #0571E1",
"6. c #0573E4",
"7. c #0574E4",
"8. c #4A7AC4",
"9. c #457CC9",
"0. c #3F84D7",
"q. c #3784DB",
"w. c #5C88CB",
"e. c #528CD5",
"r. c #508FDA",
"t. c #5290DA",
"y. c #6A92CF",
"u. c #7798CF",
"i. c #7F9ACC",
"p. c #659CDE",
"a. c #76A4DE",
"s. c #7EA9DF",
"d. c #99AED7",
"f. c #99AFD7",
"g. c #9AAFD7",
"h. c #9CB4DC",
"j. c #A8B6D8",
"k. c #A9B7D8",
"l. c #85ADE1",
"z. c #B6C3DF",
"x. c #A6C1E6",
"c. c #ABC0E1",
"v. c #A9C2E6",
"b. c #ADC5E8",
"n. c #ADCBEE",
"m. c #B1C6E6",
"M. c #B1C8E9",
"N. c #B6CCEA",
"B. c #AACBF0",
"V. c #AFCEF0",
"C. c #AFCEF1",
"Z. c #B0CEF0",
"A. c #B2D0F1",
"S. c #B6D0F0",
"D. c #C4D4EC",
/* pixels */
"                  ) (   S A   n v     p     8 5                 ",
"                  ) (   S A   n v     p     8 5                 ",
"                  ) (   S A   n v     p     8 5                 ",
"                  ) (   S A   n v     p     8 5                 ",
"                  ) (   S A   n v     p     8 4                 ",
"                ' ) ( J D Z V m v z g p y q 9 3 2               ",
"              [ ' ) ^ J D Z V M v z g p t q 0 3 2 <             ",
"            ..{                                   ; -           ",
"          +...    =.%.o.] ( G C v k u 0 2 = #     ; =           ",
"6.5.=.&.#.@...    -.%.X.] ( F C v k u 0 2 = # +   ; = $ # @ O . ",
"          +...  7.:.%.X.] ( F C v k u 0 2 = # O   ; =           ",
"          O...  7.:.%.X.] ( F C v k u 0 2 = # O   ; =           ",
"6.5.=.&.#.@...  7.:.%. .` ~ F N c d u 6 1 & # O   ; = % # @ O . ",
"6.5.=.&.#.+...  7.:.%.q.p.| H 9.w.T r R U Y : o   ; = % # @ O . ",
"            ..  7.*.,.C.n.l.K M.m.h.h d.Q j.w X   ; =           ",
"6.5.=.&.#.+...  7.*.1.Z.0.e.P v.y.c.j f.! k.w X   ; = % # @ O . ",
"6.5.=.&.#.+...  7.*.1.A.3._ L N.D.u.i g.! k.w X   ; = % # @ O . ",
"            ..  7.*.<.V.r.a.P b.8.x u g.Q j.w X   ; =           ",
"6.5.=.&.#.+...  7.;.>.B.S.s.K x.E a e i.z.k.> o   ; = % # @ O . ",
"6.5.=.&.#.@...  7.:.$.4.t.} H 2.I f r b W s # O   ; = $ # @ O . ",
"          O...  7.:.%. .` ~ F B v l u 7 , * # O   ; =           ",
"          +...  7.:.%.X.] ( F C v k u 0 2 = # O   ; =           ",
"6.5.=.&.#.@...    -.%.X.] ( F C v k u 0 2 = # +   ; = $ # @ O . ",
"          +...    =.%.o.] ( G C v k u 0 2 = #     ; =           ",
"            ..{                                   ; -           ",
"              [ ' ) ^ J D Z V m v z g p y q 0 3 2 <             ",
"                ' ) / J D Z V m v z g p y q 9 3 2               ",
"                  ) (   S A   n v     p     8 4                 ",
"                  ) (   S A   n v     p     8 5                 ",
"                  ) (   S A   n v     p     8 5                 ",
"                  ) (   S A   n v     p     8 5                 ",
"                  ) (   S A   n v     p     8 5                 "
};
