/* XPM */
static char *bfa4cb02ce424f54def7df2dda2c9535[] = {
/* columns rows colors chars-per-pixel */
"64 64 198 2 ",
"   c #1E1812",
".  c #20170C",
"X  c #2A1D0E",
"o  c #25190D",
"O  c #2C1E10",
"+  c #292219",
"@  c #332412",
"#  c #392817",
"$  c #2D2C2B",
"%  c #272625",
"&  c #372E22",
"*  c #34312E",
"=  c #3E3021",
"-  c #3D3D3D",
";  c #373533",
":  c #46361D",
">  c #483C2A",
",  c #5E4629",
"<  c #46423D",
"1  c #564836",
"2  c #5D5238",
"3  c #654E2B",
"4  c #64492B",
"5  c #6B512E",
"6  c #75552F",
"7  c #6D5438",
"8  c #7E5A32",
"9  c #72593D",
"0  c #755736",
"q  c #634B31",
"w  c #7E6134",
"e  c #454444",
"r  c #5B544C",
"t  c #545454",
"y  c #5C5C5C",
"u  c #554D44",
"i  c #6D5D4B",
"p  c #63584D",
"a  c #795E41",
"s  c #7D6345",
"d  c #74624D",
"f  c #7E644A",
"g  c #6F6153",
"h  c #6B655D",
"j  c #67645E",
"k  c #746554",
"l  c #70675D",
"z  c #73685C",
"x  c #7A6B59",
"c  c #646464",
"v  c #6B6661",
"b  c #6D6964",
"n  c #676768",
"m  c #676869",
"M  c #6B6B6B",
"N  c #716A62",
"B  c #706F6D",
"V  c #78756F",
"C  c #737474",
"Z  c #7B7B7B",
"A  c #797775",
"S  c #835D33",
"D  c #8C6335",
"F  c #87653C",
"G  c #956C3B",
"H  c #976A38",
"J  c #A6733C",
"K  c #A9763B",
"L  c #B27C3F",
"P  c #8B6B44",
"I  c #8B6E4D",
"U  c #826646",
"Y  c #8E744A",
"T  c #94724B",
"R  c #967647",
"E  c #8A775C",
"W  c #957A55",
"Q  c #8F6F4C",
"!  c #AC7C43",
"~  c #A1784B",
"^  c #B17D43",
"/  c #B07F49",
"(  c #887864",
")  c #877D72",
"_  c #967E63",
"`  c #9C834A",
"'  c #958355",
"]  c #A9844A",
"[  c #BB8344",
"{  c #BB864B",
"}  c #B38A4D",
"|  c #BB8A4A",
" . c #B38249",
".. c #B7914D",
"X. c #AC8355",
"o. c #A5855B",
"O. c #A68457",
"+. c #B58A56",
"@. c #BA9658",
"#. c #998668",
"$. c #8A847A",
"%. c #968B7B",
"&. c #A58663",
"*. c #A48A6C",
"=. c #AB8A66",
"-. c #B38E66",
";. c #B79863",
":. c #A58F75",
">. c #A99677",
",. c #B49D77",
"<. c #C28543",
"1. c #C48945",
"2. c #C28B4C",
"3. c #CC8E4A",
"4. c #C98B46",
"5. c #CA934C",
"6. c #C2914F",
"7. c #D5944D",
"8. c #C58D50",
"9. c #CA9A52",
"0. c #C89756",
"q. c #D69B52",
"w. c #E19F52",
"e. c #D6A659",
"r. c #CEA357",
"t. c #E2A457",
"y. c #CC9C60",
"u. c #CCA363",
"i. c #CAA76A",
"p. c #D4A868",
"a. c #DDB262",
"s. c #D8B369",
"d. c #C5AA76",
"f. c #D3AC71",
"g. c #D3AF7A",
"h. c #D7B779",
"j. c #E6B867",
"k. c #E4B976",
"l. c #F5C96F",
"z. c #848484",
"x. c #8C8C8C",
"c. c #878788",
"v. c #9E9284",
"b. c #959595",
"n. c #9C9C9B",
"m. c #9D9893",
"M. c #928D84",
"N. c #A39484",
"B. c #A59888",
"V. c #AB9F93",
"C. c #A19E9A",
"Z. c #A29B93",
"A. c #B39D83",
"S. c #B3A68C",
"D. c #BDAA87",
"F. c #A1A09F",
"G. c #ACA59A",
"H. c #B8AC98",
"J. c #9FA0A0",
"K. c #A3A3A3",
"L. c #ABA6A1",
"P. c #AEAAA4",
"I. c #ACACAC",
"U. c #A6A7A8",
"Y. c #B2ADA7",
"T. c #B7B3A9",
"R. c #AFB0B1",
"E. c #B3B4B4",
"W. c #BBBBBC",
"Q. c #B9B7B4",
"!. c #C6AE87",
"~. c #C9B38B",
"^. c #D8B985",
"/. c #C7B695",
"(. c #D0BE96",
"). c #C2BDAC",
"_. c #C3BFB6",
"`. c #D9C796",
"'. c #DEC283",
"]. c #E4CA9B",
"[. c #E2CA93",
"{. c #E7D39A",
"}. c #F3D887",
"|. c #D3CCA9",
" X c #C6C3BB",
".X c #D5D4BB",
"XX c #D0CEB6",
"oX c #E7DAAB",
"OX c #EAE0B3",
"+X c #C3C3C3",
"@X c #CBCBCB",
"#X c #DDDBC4",
"$X c #D3D3D3",
"%X c #DBDBDB",
"&X c #E4E4E4",
"*X c #ECECEC",
"=X c #F1F1F1",
"-X c None",
/* pixels */
"-X-X-X-X-X-X-X-X-X-X-X-X-X-X-X-X-X-X-X-X-X-X-X-X-X-X-X-X-X-X-X-X-X-X-X-X-X-X-X-X-X-X-X-X-X-X-X-X-X-X-X-X-X-X-X-X-X-X-X-X-X-X-X-X",
"-X-X-X-X-X-X-X-X-X-X-X-X-X-X-X-X-X-X-X-X-X-X-X-X-X-X-X-X-X-X-X-X-X-X-X-X-X-X-X-X-X-X-X-X-X-X-X-X-X-X-X-X-X-X-X-X-X-X-X-X-X-X-X-X",
"-X-X-X-X-X-X-X-X-X-X-X-X-X-X-X-X-X-X-X-X-X-X-X-X-X-X-X-X-X-X-X-X-X-X-X-X-X-X-X-X-X-X-X-X-X-X-X-X-X-X-X-X-X-X-X-X-X-X-X-X-X-X-X-X",
"-X-X-X-X-X-X-X-X-X-X-X-X-X-X-X-X-X-X-X-X-X-X-X-X-X-X-X-X-X-X-X-X-X-X-X-X-X-X-X-X-X-X-X-X-X-X-X-X-X-X-X-X-X-X-X-X-X-X-X-X-X-X-X-X",
"-X-X-X-X-X-X-X-X-X-X-X-X-X-X-X-X-X-X-X-X-X-X-X-X-X-X-X-X-X-X-X-X-X-X-X-X-X-X-X-X-X-X-X-X-X-X-X-X-X-X-X-X-X-X-X-X-X-X-X-X-X-X-X-X",
"-X-X-X-X-X-X-X-X-X-X-X-X-X-X-X-X-X-X-X-X-X-X-X-X-X-X-X-X-X-X-X-X-X-X-X-X-X-X-X-X-X-X-X-X-X-X-X-X-X-X-X-X-X-X-X-X-X-X-X-X-X-X-X-X",
"-X-X-X-X-X-X-X-X-X-X-X-X-X-X-X-X-X-X-X-X-X-X-X-X-X-X-X-X-X-X-X-X-X-X-X-X-X-X-X-X-X-X-X-X-X-X-X-X-X-X-X-X-X-X-X-X-X-X-X-X-X-X-X-X",
"-X-X-X-X-X-X-X-X-X-X-X-X-X-X-X-X-X-X-X-X-X-X-X-X-X-X-X-X-X-X-X-X-X-X-X-X-X-X-X-X-X-X-X-X-X-X-X-X-X-X-X-X-X-X-X-X-X-X-X-X-X-X-X-X",
"-X-X-X-X-X-X-X-X-X-X-X-X-X-X-X-X-X-X-X-X-X-X-X-X-X-X-X-X-X-X-X-X-X-X-X-X-X-X-X-X-X-X-X-X-X-X-X-X-X-X-X-X-X-X-X-X-X-X-X-X-X-X-X-X",
"-X-X-X-X-X-X-X-X-X-X-X-X-X-X-X-X-X-X-X-X-X-X-X-X-X-X-X-X-X-X-X-X-X-Xc M C B M c -X-X-X-X-X-X-X-X-X-X-X-X-X-X-X-X-X-X-X-X-X-X-X-X",
"-X-X-X-X-X-X-X-X-X-X-X-X-X-X-X-X-X-X-X-X-X-X-X-X-X-X-X-X-X-X-Xk N B Z x.x.b.c.M c -X-X-X-X-X-X-X-X-X-X-X-X-X-X-X-X-X-X-X-X-X-X-X",
"-X-X-X-X-X-X-X-X-X-X-X-X-X-X-X-X-X-X-X-X-X-X-X-X-X-X-X-Xk N B Z x.b.b.n.n.b.b.x.M v Q -X-X-X-X-X-X-X-X-X-X-X-X-X-X-X-X-X-X-X-X-X",
"-X-X-X-X-X-X-X-X-X-X-X-X-X-X-X-X-X-X-X-X-X-X-X-X-Xx l M Z c.x.b.b.b.b.n.b.b.n.b.x.c z w -X-X-X-X-X-X-X-X-X-X-X-X-X-X-X-X-X-X-X-X",
"-X-X-X-X-X-X-X-X-X-X-X-X-X-X-X-X-X-X-X-X-X-Xk h M C c.x.b.b.n.n.b.n.n.b.n.n.n.n.n.x.M j P -X-X-X-X-X-X-X-X-X-X-X-X-X-X-X-X-X-X-X",
"-X-X-X-X-X-X-X-X-X-X-X-X-X-X-X-X-X-Xs d h M C $.x.b.n.b.b.n.n.n.n.n.n.n.n.n.n.n.n.n.x.M l U -X-X-X-X-X-X-X-X-X-X-X-X-X-X-X-X-X-X",
"-X-X-X-X-X-X-X-X-X-X-X-X-X-X-X-Xd j b C Z x.b.b.n.b.b.n.b.n.n.n.n.n.n.n.n.n.n.n.n.n.n.x.M j P -X-X-X-X-X-X-X-X-X-X-X-X-X-X-X-X-X",
"-X-X-X-X-X-X-X-X-X-X-X-X-Xg j h B Z x.x.b.b.b.b.b.n.b.n.n.n.n.n.n.n.J.n.J.n.n.J.J.C.n.J.x.m l P -X-X-X-X-X-X-X-X-X-X-X-X-X-X-X-X",
"-X-X-X-X-X-X-X-X-X-X-Xg h B Z c.x.b.b.b.b.n.b.n.n.n.n.n.n.n.n.n.J.J.n.J.J.J.J.n.v.m.J.J.J.x.m j U -X-X-X-X-X-X-X-X-X-X-X-X-X-X-X",
"-X-X-X-X-X-X-Xd g h M C z.x.b.b.b.b.b.b.b.b.n.n.n.n.n.n.n.n.n.n.J.J.C.J.J.J.J.!.{ ~ m.K.J.F.x.m z T -X-X-X-X-X-X-X-X-X-X-X-X-X-X",
"-X-X-X-X-X-Xc n C c.x.b.b.b.b.b.b.n.b.n.n.n.n.n.n.n.K.n.n.K.K.K.J.J.C.v.C.K.J./.^.8.o.m.K.F.K.x.c j s -X-X-X-X-X-X-X-X-X-X-X-X-X",
"-X-X-X-Xc c M x.b.b.b.b.b.b.b.n.b.b.n.n.n.n.n.n.n.J.K.n.J.K.K.K.K.L.d./ &.C.K.U.(.h.<.o.C.K.K.K.x.m l T D -X-X-X-X-X-X-X-X-X-X-X",
"-X-X-X-Xc c c.b.b.b.b.n.n.b.n.n.n.n.n.n.n.n.n.K.F.n.K.J.J.n.v.:.N.C.~.p./ *.K.K.U.(.h.<.&.C.K.K.K.x.m l U -X-X-X-X-X-X-X-X-X-X-X",
"-X-X-Xc c y x.n.n.b.n.n.n.n.n.n.n.n.n.K.n.n.K.J.F.K.C.B.=.+.6.y.2.+.V.~.u.{ :.U.U.P.~.{ / N.K.U.U.K.x.m h Q H -X-X-X-X-X-X-X-X-X",
"-X-X-X-Xn y C n.n.n.n.n.n.n.n.n.n.K.n.J.K.K.K.K.K.V.-.[ [ 5.i.oXf.<.&.L.^.y.{ :.K.K.N.^ [ :.U.U.K.U.U.x.m l T S -X-X-X-X-X-X-X-X",
"-X-X-X-Xn c y b.F.J.n.F.J.J.J.J.K.J.K.K.K.C.K.K.K.S.u.4./ A.L.G.+.1.&.K.T.[.p.<.+.+./ 5.y.m.U.U.U.U.U.K.x.m v U -X-X-X-X-X-X-X-X",
"-X-X-XH s y y B K.K.K.K.K.K.K.F.K.K.K.v.*.+.+.&.N.L.!.y.<.:.=.{ 3.r.,.U.U.).OX].^.s.p.i.S.U.I.U.P.U.U.U.U.x.c v R H -X-X-X-X-X-X",
"-X-XJ ! R l c y x.U.K.K.K.L.U.K.L.F.&. .0.^.^.y.9.S.L.g.5.<.5.y.u.D.U.I.I.I.T.XX.X|.H.P.I.I.U.U.U.I.U.P.U.U.x.m b P -X-X-X-X-X-X",
"-X-XF o.-Xx c c n K.U.U.U.U.U.I.K.&.L 6.f.XX.X{.d.P.I.H.g.3.{ ,.P.I.I.I.I.I.I.I.I.Y.R.I.I.I.I.I.I.I.I.U.I.U.P.x.n v I G -X-X-X-X",
"-X-X-XS K H d c y z.R.I.I.I.I.I.Z.^ K *.I.I.I.T.Y.V.>.V./.f.1.=.I.R.I.I.I.R.I.R.I.R.I.I.I.I.I.I.I.I.I.U.I.U.U.U.x.n l R G -X-X-X",
"-X-X-X8 | ] E M c j K.R.I.I.I.I.B.^ ^ N.I.I.I.R.L.X.<.:.T./.p.9.S.R.R.R.R.R.R.R.Y.R.E.I.R.R.I.I.I.I.I.I.I.I.I.U.U.x.m b I -X-X-X",
"-X-X-X-XY -XI z c y Z E.E.R.E.R.L.+.[ =.I.R.R.R.L.{ 4.*.R.T.^.i.H.R.R.T.R.R.R.E.R.R.E.I.E.I.R.R.R.I.I.I.I.I.I.U.I.U.Z c c -X-X-X",
"-X-X-X-X5 } K G v c y F.Q.E.E.E.R.~.0.[ -.G.L.S.-.3.9.B.R.E.T.T.E.E.E.E.E.E.E.E.E.R.E.E.R.E.R.T.R.E.I.I.I.I.I.I.U.I.Z c m c -X-X",
"-X-X-X-X-X] ..O.V M y C E.W.W.E.E.).].f.8.<.8.3.r.e.d.R.E.E.E.E.Q.E.E.E.E.E.E.E.E.R.E.E.E.E.R.R.R.R.R.R.R.I.I.I.R.K.M c c c -X-X",
"-X-X-X-X-XP -X-XI N m y n.W.W.W.W.W. XOXoX].].{.'.!.Q.E.W.E.W.E.Q.Q.W.E.W.E.E.E.W.E.E.E.E.E.E.E.E.E.E.R.I.R.E.K.Z y j n M -X-X-X",
"-X-X-X-X-X-XR ..K I M y m E.+XW.W.W.W.+X#X#X#X.X_.W.W.W.W.W.W.W.W.W.E.E.W.E.W.E.E.E.E.E.E.E.E.E.E.R.R.E.R.J.A y y c M n t -X-X-X",
"-X-X-X-X-X-XF i.} &.Z m y x.+X+X+X+XW.+XW.W.W.W.W.W.W.W.W.W.W.W.W.Q.W.W.W.W.W.W.W.E.W.W.W.E.Q.E.E.Q.Q.n.C y y c M M t - * -X-X-X",
"-X-X-X-X-X-X-XW -X-XE M c c R.+X+X+X+X+X+X+XW.+X+XW.W.+XW.+XW.W.W.W.W.W.W.W.W.W.W.W.E.E.Q.W.Q.W.Q.n.B y y n M B z a q ; -X-X-X-X",
"-X-X-X-X-X-X-X3 ;. .J ( m y z.@X@X+X+X@X@X+X+X+X+X+X+X+XW.+X+XW.+X+XW.W.W.W.W.W.W.W.W.W.W.W.E.b.m y y n M N r ; w ! <.] -X-X-X-X",
"-X-X-X-X-X-X-X-X;.u.} #.A c y I.$X@X@X@X@X+X@X+X+X+X+X+X+X+X+X+X+XW.W.+X+XW.W.W.W.W.W.W.E.b.m y y n M n k a 6 = 2 s.a...-X-X-X-X",
"-X-X-X-X-X-X-X-XW ,.-X( ) B y C @X$X$X@X@X@X@X@X@X@X@X+X@X+X+X+X+X+X+X+X+X+XW.+X+X+XW.x.c y y m M M r * q ! 3.6.-Xo.3 -X-X-X-X-X",
"-X-X-X-X-X-X-X-X-Xa @.L ~ V m y K.$X$X$X$X$X@X@X@X@X@X@X+X@X@X+X+X+X+X+X+X+X+X+XQ.x.c t c m M v k 7 S , & f.a...-X: X -X-X-X-X-X",
"-X-X-X-X-X-X-X-X-XU h.6.} #.B y M @X%X$X$X$X$X$X$X$X$X@X@X@X@X@X@X@X+X@X@X+XE.c.y y c M M M p * >  .7.q.-X-X3 @ -X-X-X-X-X-X-X-X",
"-X-X-X-X-X-X-X-X-X-X,.d.-XM.Z m y b.%X%X%X%X%X$X$X$X$X$X$X@X$X@X@X@X$X@XR.z.y y c b M y g 7 D 6 + d.j...F -XO -X-X-X-X-X-X-X-X-X",
"-X-X-X-X-X-X-X-X-X-XF -X-X! _ C c c @X&X%X%X%X%X$X%X$X$X$X$X$X@X$X$XR.Z y y c M M M p * > } 7.w.} -X3 @ -X-X-X-X-X-X-X-X-X-X-X-X",
"-X-X-X-X-X-X-X-X-X-X-X&.k.3. .) m y c.&X&X&X%X%X%X%X$X%X%X$X%X$XI.Z y y c m M j i 7 D 6 + d.j.} w -X@ -X-X-X-X-X-X-X-X-X-X-X-X-X",
"-X-X-X-X-X-X-X-X-X-X-XW [.l.;.M.A n y W.*X&X&X&X&X&X%X%X%X$XI.C y y c M M b r $ 1 { w.t.} -X3 @ -X-X-X-X-X-X-X-X-X-X-X-X-X-X-X-X",
"-X-X-X-X-X-X-X-X-X-X-X-X*.-X-X#.$.M y Z &X*X*X&X&X&X&X%XI.C t y c M m v i 7 D 4 % g.a.] 6 -X@ . -X-X-X-X-X-X-X-X-X-X-X-X-X-X-X-X",
"-X-X-X-X-X-X-X-X-X-X-X-X6 -Xs.j.-.A c y K.*X=X=X*X%XU.B t y m M M N u $ 9 <.w.e.-X-X, X -X-X-X-X-X-X-X-X-X-X-X-X-X-X-X-X-X-X-X-X",
"-X-X-X-X-X-X-X-X-X-X-X-X-X>.}.l.j.$.B c y c.E.W.n.M t c n M M v i 6 D & e k.a.` 5 -X@ . -X-X-X-X-X-X-X-X-X-X-X-X-X-X-X-X-X-X-X-X",
"-X-X-X-X-X-X-X-X-X-X-X-X-XW {.l.d.$.z.m m y y y y y m M B v < > F | t.9.-X' : X -X-X-X-X-X-X-X-X-X-X-X-X-X-X-X-X-X-X-X-X-X-X-X-X",
"-X-X-X-X-X-X-X-X-X-X-X-X-X-X' -X-XA c.Z B m m m m M B N i 0 ,   #.l.s.R -X-XO . -X-X-X-X-X-X-X-X-X-X-X-X-X-X-X-X-X-X-X-X-X-X-X-X",
"-X-X-X-X-X-X-X-X-X-X-X-X-X-X-X-X-X-XZ Z Z Z A A C y e 7 H 4.r.Y -X' : X -X-X-X-X-X-X-X-X-X-X-X-X-X-X-X-X-X-X-X-X-X-X-X-X-X-X-X-X",
"-X-X-X-X-X-X-X-X-X-X-X-X-X-X-X-X-X-X-XB t t t t e * % 1 h.l.h.` -X# . -X-X-X-X-X-X-X-X-X-X-X-X-X-X-X-X-X-X-X-X-X-X-X-X-X-X-X-X-X",
"-X-X-X-X-X-X-X-X-X-X-X-X-X-X-X-X-X-X-X-Xt e - - - $ $ -X`.' : X -X-X-X-X-X-X-X-X-X-X-X-X-X-X-X-X-X-X-X-X-X-X-X-X-X-X-X-X-X-X-X-X",
"-X-X-X-X-X-X-X-X-X-X-X-X-X-X-X-X-X-X-X-X-X-X- e -X-X-X-X-XO . -X-X-X-X-X-X-X-X-X-X-X-X-X-X-X-X-X-X-X-X-X-X-X-X-X-X-X-X-X-X-X-X-X",
"-X-X-X-X-X-X-X-X-X-X-X-X-X-X-X-X-X-X-X-X-X-X-X-X-X-X-X-X-X-X-X-X-X-X-X-X-X-X-X-X-X-X-X-X-X-X-X-X-X-X-X-X-X-X-X-X-X-X-X-X-X-X-X-X",
"-X-X-X-X-X-X-X-X-X-X-X-X-X-X-X-X-X-X-X-X-X-X-X-X-X-X-X-X-X-X-X-X-X-X-X-X-X-X-X-X-X-X-X-X-X-X-X-X-X-X-X-X-X-X-X-X-X-X-X-X-X-X-X-X",
"-X-X-X-X-X-X-X-X-X-X-X-X-X-X-X-X-X-X-X-X-X-X-X-X-X-X-X-X-X-X-X-X-X-X-X-X-X-X-X-X-X-X-X-X-X-X-X-X-X-X-X-X-X-X-X-X-X-X-X-X-X-X-X-X",
"-X-X-X-X-X-X-X-X-X-X-X-X-X-X-X-X-X-X-X-X-X-X-X-X-X-X-X-X-X-X-X-X-X-X-X-X-X-X-X-X-X-X-X-X-X-X-X-X-X-X-X-X-X-X-X-X-X-X-X-X-X-X-X-X",
"-X-X-X-X-X-X-X-X-X-X-X-X-X-X-X-X-X-X-X-X-X-X-X-X-X-X-X-X-X-X-X-X-X-X-X-X-X-X-X-X-X-X-X-X-X-X-X-X-X-X-X-X-X-X-X-X-X-X-X-X-X-X-X-X",
"-X-X-X-X-X-X-X-X-X-X-X-X-X-X-X-X-X-X-X-X-X-X-X-X-X-X-X-X-X-X-X-X-X-X-X-X-X-X-X-X-X-X-X-X-X-X-X-X-X-X-X-X-X-X-X-X-X-X-X-X-X-X-X-X",
"-X-X-X-X-X-X-X-X-X-X-X-X-X-X-X-X-X-X-X-X-X-X-X-X-X-X-X-X-X-X-X-X-X-X-X-X-X-X-X-X-X-X-X-X-X-X-X-X-X-X-X-X-X-X-X-X-X-X-X-X-X-X-X-X",
"-X-X-X-X-X-X-X-X-X-X-X-X-X-X-X-X-X-X-X-X-X-X-X-X-X-X-X-X-X-X-X-X-X-X-X-X-X-X-X-X-X-X-X-X-X-X-X-X-X-X-X-X-X-X-X-X-X-X-X-X-X-X-X-X",
"-X-X-X-X-X-X-X-X-X-X-X-X-X-X-X-X-X-X-X-X-X-X-X-X-X-X-X-X-X-X-X-X-X-X-X-X-X-X-X-X-X-X-X-X-X-X-X-X-X-X-X-X-X-X-X-X-X-X-X-X-X-X-X-X"
};
