/* XPM */
static char *_89b6cc22137442e83ae7ae164493571[] = {
/* columns rows colors chars-per-pixel */
"16 16 111 2 ",
"   c #7B6037",
".  c #7D653D",
"X  c #505151",
"o  c #76654F",
"O  c #766550",
"+  c #776550",
"@  c #776750",
"#  c #776E63",
"$  c #716E6A",
"%  c #746F6A",
"&  c #716E6C",
"*  c #7F7363",
"=  c #74706A",
"-  c #75716B",
";  c #777777",
":  c #7D7873",
">  c #78797A",
",  c #836338",
"<  c #846539",
"1  c #846842",
"2  c #856942",
"3  c #846945",
"4  c #846A44",
"5  c #876F4E",
"6  c #9A7949",
"7  c #977D58",
"8  c #8B7B67",
"9  c #817D78",
"0  c #888273",
"q  c #87837F",
"w  c #B09567",
"e  c #BF9763",
"r  c #AF9A7E",
"t  c #B49877",
"y  c #B79D78",
"u  c #B59C7A",
"i  c #B89E7E",
"p  c #858280",
"a  c #858381",
"s  c #868481",
"d  c #838384",
"f  c #888481",
"g  c #8A8580",
"h  c #898682",
"j  c #8E8A81",
"k  c #8A8886",
"l  c #8C8985",
"z  c #8E8A85",
"x  c #8F8E8D",
"c  c #909090",
"v  c #929291",
"b  c #929292",
"n  c gray58",
"m  c #969695",
"M  c gray59",
"N  c #989898",
"B  c #989899",
"V  c gray60",
"C  c #9A9A9A",
"Z  c #9B9B9C",
"A  c #9C9D9D",
"S  c #9E9E9D",
"D  c #9D9E9E",
"F  c #A79988",
"G  c #A79A8A",
"H  c #A69A8C",
"J  c #B49E81",
"K  c #A59C91",
"L  c #A49F97",
"P  c #A09E9B",
"I  c #B5A185",
"U  c #B9A180",
"Y  c #B7A488",
"T  c #BDA78A",
"R  c #BBA98C",
"E  c #ACA69D",
"W  c #B7A690",
"Q  c #BCB19D",
"!  c #A4A4A4",
"~  c #A5A5A6",
"^  c #A6A7A8",
"/  c #AAAAAA",
"(  c gray67",
")  c gray68",
"_  c #AEADAC",
"`  c #ADAEAE",
"'  c #AEAFAF",
"]  c #B3AEA7",
"[  c #B0B1B1",
"{  c #B0B1B2",
"}  c #B1B2B2",
"|  c gray71",
" . c #B6B6B6",
".. c #B7B7B7",
"X. c #B8B8B7",
"o. c #BABBBB",
"O. c gray75",
"+. c #CCBB9E",
"@. c #C1B4A1",
"#. c #C5BDB1",
"$. c #C1C1C1",
"%. c gray76",
"&. c #C4C4C5",
"*. c #C5C5C6",
"=. c #C7C8C8",
"-. c #CACACA",
";. c #CECECE",
":. c #D1D2D2",
">. c #D2D2D2",
",. c #D8D8D8",
"<. c None",
/* pixels */
"<.<.<.<.<.<.<.<.<.<.<.<.<.<.<.<.",
"<.<.<.<.<.<.<.<.<.<.<.<.<.<.<.<.",
"<.<.<.<.<.<.<.<.a s <.<.<.<.<.<.",
"<.<.<.<.<.9 k b N B f <.<.<.<.<.",
"<.<.: s x M Z S P L G f <.<.<.<.",
"<.; M B S S K r u J y H l <.<.<.",
"<.# B ! F Y U e I Q R E / l <.<.",
"<.5 a _ t W i T ] } { _ _ / a <.",
"<.6 8 ! #.+.@.o.X......./ x & <.",
"<.<.7 f *.-.$.$.$.O.} b % o 3 <.",
"<.<.<.8 _ ,.:.;.o.M % o 2 < <.<.",
"<.<.<.w j :.-.B % o 1 , <.<.<.<.",
"<.<.<.<.0 > % @ 3   <.<.<.<.<.<.",
"<.<.<.<.<.X <.. <.<.<.<.<.<.<.<.",
"<.<.<.<.<.<.<.<.<.<.<.<.<.<.<.<.",
"<.<.<.<.<.<.<.<.<.<.<.<.<.<.<.<."
};
