/* XPM */
static char *_ca6c7a50eb243f081355a76fb920189[] = {
/* columns rows colors chars-per-pixel */
"32 32 142 2 ",
"   c #3A3B3B",
".  c #484138",
"X  c #7F643D",
"o  c #4C4C4C",
"O  c #57524D",
"+  c #59544E",
"@  c #575656",
"#  c #5C5751",
"$  c #645B52",
"%  c #776045",
"&  c #7A6245",
"*  c #6B6258",
"=  c #74675A",
"-  c #75695C",
";  c #796D5E",
":  c #656463",
">  c #6B6965",
",  c #676868",
"<  c #6B6B6B",
"1  c #746C62",
"2  c #716D68",
"3  c #77726B",
"4  c #7A736B",
"5  c #737373",
"6  c #797572",
"7  c #7C7976",
"8  c #7D7D7C",
"9  c #8B6D3C",
"0  c #836B3B",
"q  c #926D3E",
"w  c #94713F",
"e  c #856744",
"r  c #896742",
"t  c #856949",
"y  c #8F6E48",
"u  c #8D6B44",
"i  c #877141",
"p  c #8E7246",
"a  c #8D734A",
"s  c #947342",
"d  c #9B7542",
"f  c #9B7943",
"g  c #93724A",
"h  c #93794F",
"j  c #997949",
"k  c #836E51",
"l  c #89745C",
"z  c #9C7C52",
"x  c #A47843",
"c  c #957D60",
"v  c #827F7C",
"b  c #9F835C",
"n  c #A4824D",
"m  c #A38757",
"M  c #AA8651",
"N  c #AC875C",
"B  c #B28A57",
"V  c #B58E5C",
"C  c #BB8E5A",
"Z  c #BD9359",
"A  c #B8985F",
"S  c #8C806D",
"D  c #9E8667",
"F  c #81807F",
"G  c #A68E62",
"H  c #AC8B63",
"J  c #AB8D6A",
"K  c #AB906F",
"L  c #B09362",
"P  c #BB9463",
"I  c #BD9865",
"U  c #AC9376",
"Y  c #AF9C73",
"T  c #B79B76",
"R  c #BD9F74",
"E  c #B09678",
"W  c #C39456",
"Q  c #C8975B",
"!  c #C39A62",
"~  c #C79F6A",
"^  c #C7A96B",
"/  c #D5AB68",
"(  c #C6A473",
")  c #C9AD7D",
"_  c #D0AD75",
"`  c #D4AF7B",
"'  c #D5B27E",
"]  c #E7C87C",
"[  c #848484",
"{  c #878788",
"}  c #8A8A8A",
"|  c #949494",
" . c #9F9991",
".. c #979798",
"X. c #9B9B9B",
"o. c #AA9782",
"O. c #A3978A",
"+. c #A5998C",
"@. c #AE9D8A",
"#. c #A39484",
"$. c #A49C94",
"%. c #A19E9A",
"&. c #AFA18C",
"*. c #B6A080",
"=. c #BBA684",
"-. c #B7A38A",
";. c #B8A78B",
":. c #A5A29C",
">. c #ACA49C",
",. c #B0A897",
"<. c #B9AA95",
"1. c #BBB09F",
"2. c #9FA0A1",
"3. c #A4A4A4",
"4. c #AFAAA1",
"5. c #A7A7A8",
"6. c #ACACAB",
"7. c #B3ADA1",
"8. c #B5B0AA",
"9. c #AFAFB0",
"0. c #B3B3B3",
"q. c #BCBAB3",
"w. c #BBBBBB",
"e. c #C3AC8A",
"r. c #C5B18E",
"t. c #D1B382",
"y. c #D2B98A",
"u. c #C1B093",
"i. c #D4BF9B",
"p. c #C2B7A1",
"a. c #C2BDA9",
"s. c #C0BEB8",
"d. c #C2C2BF",
"f. c #CCCABC",
"g. c #C3C3C3",
"h. c #CDCBC0",
"j. c #CACACA",
"k. c #D3D3D3",
"l. c #DCDCDC",
"z. c #E3E3E3",
"x. c #EAEAEA",
"c. c None",
/* pixels */
"c.c.c.c.c.c.c.c.c.c.c.c.c.c.c.c.c.c.c.c.c.c.c.c.c.c.c.c.c.c.c.c.",
"c.c.c.c.c.c.c.c.c.c.c.c.c.c.c.c.c.c.c.c.c.c.c.c.c.c.c.c.c.c.c.c.",
"c.c.c.c.c.c.c.c.c.c.c.c.c.c.c.c.c.c.c.c.c.c.c.c.c.c.c.c.c.c.c.c.",
"c.c.c.c.c.c.c.c.c.c.c.c.c.c.c.c.c.c.c.c.c.c.c.c.c.c.c.c.c.c.c.c.",
"c.c.c.c.c.c.c.c.c.c.c.c.c.c.c.c.c.c.3 c.c.c.c.c.c.c.c.c.c.c.c.c.",
"c.c.c.c.c.c.c.c.c.c.c.c.c.c.; 4 F } | [ > c.c.c.c.c.c.c.c.c.c.c.",
"c.c.c.c.c.c.c.c.c.c.c.c.3 8 } | ..X...X.[ = c.c.c.c.c.c.c.c.c.c.",
"c.c.c.c.c.c.c.c.c.1 7 [ | ......X.X.X.X.X.{ = c.c.c.c.c.c.c.c.c.",
"c.c.c.c.c.c.1 6 [ } ......X.X.X.%.X.2.X.$.X.} = c.c.c.c.c.c.c.c.",
"c.c.c.> 3 [ } | ......X.X.2.2.2.3.$.X.,.I #.2.[ - c.c.c.c.c.c.c.",
"c.c.: [ | ......X.X.X.%.%.2.%.+.$.R K :.r.P O.3.} = c.c.c.c.c.c.",
"c.c.: } X.X.X.X.X.X.2.3.3.U C ( P *.~ U >.P J 3.3.} - r c.c.c.c.",
"c.c.* 5 X.2.2.3.3.$.o.o.&.! V T W @.p.' ( ! &.3.6.3.{ - u c.c.c.",
"c.d k : } 5.3.5.+.B ) y.=.<.Q Z ;.6.6.q.a.7.6.6.6.6.3.{ - c.c.c.",
"c.c.x = 5 5.6.6.J N 6.0.&.E e.! 4.6.9.6.6.6.6.6.6.6.6.6.} ; c.c.",
"c.c.f a : } 0.0.-.C &.>.I P 8.u.8.0.0.0.0.0.0.9.6.6.6.6.3.5 : c.",
"c.c.c.n ; , 6.w.q.i.t.` _ 1.0.0.0.0.0.0.0.0.0.9.0.9.9.5.{ , : c.",
"c.c.c.n z > [ g.w.d.h.f.w.w.w.w.w.w.w.w.0.w.w.0.0.5.} 2 : @ c.c.",
"c.c.c.c.M l , 6.j.g.g.d.g.d.d.d.w.w.w.w.w.w.q.6.[ < : # t r c.c.",
"c.c.c.c.V b 2 8 j.k.j.j.j.g.g.g.g.d.d.d.w.5.[ , : + & q j f c.c.",
"c.c.c.c.c.A c > 5.l.k.j.j.j.j.j.j.j.g.6.[ : : # & w a d c.c.c.c.",
"c.c.c.c.c.L H 4 5 k.l.l.l.k.k.k.j.5.F , : + & x f s c.c.c.c.c.c.",
"c.c.c.c.c.c./ D , 3.z.z.l.l.k.6.8 : : O & x a w c.c.c.c.c.c.c.c.",
"c.c.c.c.c.c.G ( c < j.x.l.0.8 : : O t x a 9 c.c.c.c.c.c.c.c.c.c.",
"c.c.c.c.c.c.c.] Y < 5 } 8 : : + u s h 9 c.c.c.c.c.c.c.c.c.c.c.c.",
"c.c.c.c.c.c.c.c.c.8 5 , : $ g X m 0 c.c.c.c.c.c.c.c.c.c.c.c.c.c.",
"c.c.c.c.c.c.c.c.c.c.@ o   . P i c.c.c.c.c.c.c.c.c.c.c.c.c.c.c.c.",
"c.c.c.c.c.c.c.c.c.c.c.c.c.c.c.c.c.c.c.c.c.c.c.c.c.c.c.c.c.c.c.c.",
"c.c.c.c.c.c.c.c.c.c.c.c.c.c.c.c.c.c.c.c.c.c.c.c.c.c.c.c.c.c.c.c.",
"c.c.c.c.c.c.c.c.c.c.c.c.c.c.c.c.c.c.c.c.c.c.c.c.c.c.c.c.c.c.c.c.",
"c.c.c.c.c.c.c.c.c.c.c.c.c.c.c.c.c.c.c.c.c.c.c.c.c.c.c.c.c.c.c.c.",
"c.c.c.c.c.c.c.c.c.c.c.c.c.c.c.c.c.c.c.c.c.c.c.c.c.c.c.c.c.c.c.c."
};
