/* XPM */
static char *af71389fce74409baa34e128f8f1a64c[] = {
/* columns rows colors chars-per-pixel */
"64 64 111 2 ",
"   c None",
".  c #021D7C",
"X  c #02207F",
"o  c #022383",
"O  c #022788",
"+  c #032B8C",
"@  c #11348E",
"#  c #032F91",
"$  c #033396",
"%  c #03369A",
"&  c #03399E",
"*  c #123691",
"=  c #193A92",
"-  c #033DA3",
";  c #0340A6",
":  c #0345AC",
">  c #0844A8",
",  c #1A4AA5",
"<  c #144DAC",
"1  c #044CB4",
"2  c #0452BB",
"3  c #1351B2",
"4  c #2D57A9",
"5  c #3155A6",
"6  c #215EB9",
"7  c #3761B0",
"8  c #3268BC",
"9  c #4B6FB6",
"0  c #5579BC",
"q  c #0457C1",
"w  c #045AC5",
"e  c #045ECA",
"r  c #085FC9",
"t  c #0462CF",
"y  c #0E66CD",
"u  c #1260C5",
"i  c #1B66C7",
"p  c #1067CE",
"a  c #1469CE",
"s  c #0465D2",
"d  c #0568D6",
"f  c #056CDB",
"g  c #116DD5",
"h  c #106FD8",
"j  c #1F75D7",
"k  c #1572D9",
"l  c #246CC9",
"z  c #2E75CE",
"x  c #3E73C2",
"c  c #3177CF",
"v  c #387ACE",
"b  c #2474D2",
"n  c #0572E2",
"m  c #4175C3",
"M  c #4C7FCA",
"N  c #507AC1",
"B  c #6A82BC",
"V  c #3B82D6",
"C  c #5681C5",
"Z  c #5382C9",
"A  c #5885C9",
"S  c #4785D4",
"D  c #4B86D3",
"F  c #528BD4",
"G  c #5D8ED1",
"H  c #5F98DD",
"J  c #698DC9",
"K  c #7991C6",
"L  c #669CDE",
"P  c #7AA0D7",
"I  c #68A1E2",
"U  c #7CABE3",
"Y  c #7DAFE8",
"T  c #8396C5",
"R  c #869CCC",
"E  c #8C9ECA",
"W  c #8EAAD8",
"Q  c #9DAED5",
"!  c #91ABD8",
"~  c #9CB4DC",
"^  c #A3B5DA",
"/  c #87B1E5",
"(  c #8DB5E7",
")  c #8FB9EA",
"_  c #91B2E0",
"`  c #92BCEC",
"'  c #A6BEE3",
"]  c #9CC0EB",
"[  c #A6C0E4",
"{  c #AAC7EB",
"}  c #BEC9E2",
"|  c #B0CCEE",
" . c #BCCEEA",
".. c #C7D2E8",
"X. c #CDD5E8",
"o. c #CBD9EE",
"O. c #D5DDED",
"+. c #C6DAF3",
"@. c #CBDFF6",
"#. c #DBE0EE",
"$. c #D3E3F5",
"%. c #D9E6F6",
"&. c #D3E4F8",
"*. c #DEEAF8",
"=. c #E6EDF7",
"-. c #EBEFF7",
";. c #E4EEFA",
":. c #ECF3FB",
">. c #F2F5FA",
",. c #F5F8FC",
"<. c #FCFDFE",
/* pixels */
"                                    w w w         2 2 1       : 1 :       ; - - -       % % % $                                 ",
"                                    e w q         2 2 2       1 : :       ; ; - -       % % $ %                                 ",
"                                    e w w         2 1 2       1 : :       ; ; - -       % % $ $                                 ",
"                                    w w q         2 2 1       > 1 :       ; ; - -       % % $ $                                 ",
"                                    e w w         2 1 2       1 1 :       ; - - -       % % $ %                                 ",
"                                    w w w         2 2 2       1 : :       ; - ; -       % % % $                                 ",
"                                    w w q         2 1 1       > : 1       ; ; - -       % % $ $                                 ",
"                                    w w w         2 2 2       1 : :       ; ; - -       % % $ %                                 ",
"                                    w w q         2 2 2       1 : :       ; ; ; -       % % $ $                                 ",
"                                    e w w         2 2 1       1 1 :       ; ; - -       % % $ $                                 ",
"                                  e e w q q q 2 2 2 1 2 1 1 1 : 1 : : : ; ; ; - - & & & % % $ $                                 ",
"                              e e r w w w q q 2 2 2 2 2 1 1 1 > : : : ; ; ; ; - - - & % % % % $ $ #                             ",
"                            t e e e w w r q q q 2 2 2 1 2 1 1 1 : : : ; ; ; ; - & & & & % % $ $ $ # # +                         ",
"                          s t e e e w w q q q 2 2 2 2 1 1 1 1 1 : 1 : : : ; - - - & & & % % $ $ $ # # + +                       ",
"                        s t t e r                                                                 # # + +                       ",
"                        t t t t                                                                     # # + +                     ",
"                      s s t t           f d s t e w w q 2 2 1 1 1 : ; ; - & & % $ # + O O o         # + + +                     ",
"n n n n n f f f d d d s s t t       n f f d s t s w w w 2 2 2 1 : : : ; - & & $ $ # + + O o o         + + + O O O O o o X . . . ",
"n n n n f f f f f d s s t t e       n f f d s t s w w q q 2 1 1 1 : ; ; - & & $ $ # + + O o X .       # + + + O o o o X X . . . ",
"n n n n n f f f d d d s s t s     n n f d d s t e w w q 2 2 1 1 1 : > > - & & % $ # + + O o o .       + + + O O O o X o X . . . ",
"n n n n n f f f f d s s s t t     n n f f d s t e e w q 2 2 1 1 : : : ; - & % % $ # + + O o . . .     + + + + O o O o o X . . . ",
"                      s s t t     n n f d d s t e e w w 2 2 2 1 1 : > ; - - & $ # # + + O o o . .     # + +                     ",
"                      s s t t     n n f f d s t e e r q 2 2 2 1 1 : : ; - & & % $ # + + O o o . .     + + +                     ",
"                      s s t t     n n f d d s s e w w q 2 2 1 1 : : ; ; - & % $ $ # + + O o o . .     + + +                     ",
"n n n n f f f f d d d s s e t     n n n d d s e e e w q q 2 1 1 1 : : ; & & & % $ # + O O o o . .     # + + O O O o o X . . . . ",
"n n n n n f f f d d s s s t t     n n f f d s s e e w q 2 2 2 1 1 : > ; - & & % $ # + + O o . o .     + + + O O O o X o o . . . ",
"n n n n n f f f f d d s s t t     n n f d d s t y e w q 2 2 2 1 : : : ; - & & % $ # + + O o o . .     + + + + O O o o o o . . . ",
"                      s s t t     n n f f d j ) +.| S q 2 2 G ' [ ~ C > - % 7 ^ 9 # K E @ o . . .     + + +                     ",
"                      s s t t     n n f f d ` <.$.:.%.l 2 2 _ <.=.:.>.N & % 0 <.K $ ..O.= o o . .     + + +                     ",
"                      s s t t     n n f f h @.;.b U <.D 2 2 _ <.N A <.! - & 0 <.K @ } O.= o X . .     + + +                     ",
"n n n n n f f f f d s s s t t     n n f f k &.$.y L =.D 2 2 _ ,.x 8 ,.~ - & 0 <.K # ..#.= o X . .     # + + O O O o o X X . . . ",
"n n n n n f f f d d d s s t e     n n n f g &.$.g a c u 2 2 _ ,.x x ,.~ - & 0 <.K + } #.= o o . .     + + + + O O o o o X . . . ",
"n n n f f f f f d d s s s t t     n n f f k &.$.a e w q 2 2 _ <. .o.<.J - % N <.K $ } #.= o o . .     + + + O O O o o X X X . . ",
"n n n n n f f f f d d s s t t     n n f f k &.$.g w w q 2 2 _ <.=.$.W < - % 0 <.K @ } #.= o o . .     + + + O O O o o o X . . . ",
"                      s s t t     n n f d k &.&.a S { v q 2 _ <.Z 3 : ; - % 0 <.K $ } #.= o . . .     # + +                     ",
"                      s s t t     n n f f k &.$.p L <.D 2 2 _ ,.m ; ; ; - & 0 <.K # } #.= o X . .     + + +                     ",
"                      s t t e     n n n f h +.;.v ( <.S 2 2 _ ,.x : : ; - % 9 ,.Q 5 O.X.@ o X . .     + + +                     ",
"n n n n n f f f f d d s s t s     n n f d s Y <.:.<.+.i q 2 _ ,.m : ; ; - & , ..,.-.<.T O o X X .     # + + O O o o o o X . . . ",
"n n n n n f f f f d s s s t t     n n f f d g I ` / z q q 1 M P 6 : : ; - & & 4 R Q B * O o X X .     + + + O O o o o X X . . . ",
"n n n n f f f f d d s s s t t     n n f f d d e e e q q q 2 2 1 1 : ; - - - % % $ # + O O o X X .     + + + O O O o o o X . . . ",
"                      s s t t     n f f f d s e e w w q q 2 1 1 1 : ; ; & & & % $ # + O O o X X .     + + O                     ",
"                      s s t t     n n n f d s s s w w w 2 2 1 1 : : : ; ; & & % $ # + + O o X X .     # + +                     ",
"                      s s t t     n n f f d s s s w w q 2 2 1 1 : 1 : ; - & % % $ # + + O o X . .     + # +                     ",
"n n n n f n f n d d d s s t t     n n n d d d e e w w q q 1 2 1 1 : ; ; ; & & % $ # + + O o X X .     # + O + O O o o o X . . . ",
"n n n n n f f f d d d s s t t     n n f f d s s e w w q 2 2 2 1 : : ; ; - & % % $ # # + O o X X       + + + O O O o o . X . . . ",
"n n n f n f f d d d s s s t t       n f d d d e s w w w q 2 1 1 1 : : ; - & & $ $ # + O O o X X       + + + O O O o o o X X . . ",
"n n n n n f f f f d s s s e t       n f f d s t e e r q 2 2 1 1 1 : : ; - & & % $ # + + O O X         # + + O O O o o o X . . . ",
"                      s s s t           f d s t e w w q 2 2 2 1 : : : ; - & % % $ # + O O X         $ + + O                     ",
"                        d s e e                                                                     # + + +                     ",
"                        d t t t e                                                                 # $ + +                       ",
"                          t t e e e e w q q q 2 2 2 2 2 1 1 1 1 1 : : ; ; ; - - - & & & % % % $ $ # + + +                       ",
"                            t e e e w w w q q 2 2 2 2 1 1 1 1 > : : : : : ; ; - - & & & % % $ $ # $ # #                         ",
"                              e e e w w w q q 2 2 2 2 1 1 1 1 1 1 : : : ; ; ; - - & & & % % $ $ $ #                             ",
"                                  e w w q w q 2 2 2 2 1 1 1 1 > : : : ; ; - ; - - & & & % % $ $                                 ",
"                                    e w w         2 2 2       1 : 1       > - - -       % % $ $                                 ",
"                                    w w q         2 2 1       1 : :       > - - -       % % % $                                 ",
"                                    w w w         2 2 1       1 1 :       ; - - -       % % % $                                 ",
"                                    e w w         2 2 2       : : :       ; ; - -       % % $ %                                 ",
"                                    w q q         2 2 1       1 : :       ; ; - -       % % $ $                                 ",
"                                    w r w         2 2 1       1 1 :       ; ; - -       % % $ $                                 ",
"                                    w w q         2 1 2       : 1 :       ; - - -       % % % $                                 ",
"                                    e w r         2 2 1       1 : :       ; ; ; -       % % $ $                                 ",
"                                    w w q         2 2 1       1 1 :       ; - - -       % % $ $                                 ",
"                                    e w q         2 2 2       1 : :       ; ; - -       % % % $                                 "
};
