/* XPM */
static char *_4ecd38cd4064144b2312234d17a1b2e[] = {
/* columns rows colors chars-per-pixel */
"16 16 83 1 ",
"  c None",
". c #021E7D",
"X c #022282",
"o c #022383",
"O c #002485",
"+ c #012586",
"@ c #022686",
"# c #032787",
"$ c #092885",
"% c #022A8B",
"& c #032A8B",
"* c #012C8F",
"= c #032D8F",
"- c #0F2D88",
"; c #1F3B8F",
": c #032E90",
"> c #032F91",
", c #033396",
"< c #033498",
"1 c #03379B",
"2 c #02389D",
"3 c #03399D",
"4 c #033B9F",
"5 c #203C90",
"6 c #033EA4",
"7 c #033FA5",
"8 c #1F459C",
"9 c #0143AA",
"0 c #0344AB",
"q c #0345AC",
"w c #0346AD",
"e c #0347AE",
"r c #1446A4",
"t c #044BB3",
"y c #044CB4",
"u c #034FB8",
"i c #044FB9",
"p c #0450B9",
"a c #0450BA",
"s c #0453BD",
"d c #1752B0",
"f c #2958AD",
"g c #275EB6",
"h c #4D74BB",
"j c #5479BD",
"k c #647EBA",
"l c #0457C1",
"z c #025AC6",
"x c #0459C4",
"c c #045AC5",
"v c #045AC6",
"b c #045BC6",
"n c #045BC7",
"m c #045DC9",
"M c #0461CE",
"N c #1B60C0",
"B c #0463D0",
"V c #0464D1",
"C c #0366D4",
"Z c #0466D4",
"A c #0566D4",
"S c #0567D5",
"D c #026EDF",
"F c #036EDF",
"G c #056DDC",
"H c #046FDF",
"J c #1973D8",
"K c #2872CE",
"L c #3774C8",
"P c #0570E0",
"I c #0572E2",
"U c #3B89DF",
"Y c #4B89D5",
"T c #5D8FD3",
"R c #5F91D4",
"E c #5B93D9",
"W c #6088C8",
"Q c #7A91C4",
"! c #6498DB",
"~ c #589AE4",
"^ c #5A9CE4",
"/ c #869AC9",
"( c #8EAAD8",
/* pixels */
"    c a e6 <    ",
"    v a e6 <    ",
"    blatw74<    ",
"   Mmxsyq61,>   ",
"IGAB Snp03=o %o.",
"  ZVPCzu92*X#&  ",
"IGAVHJKNgr8$@%o.",
"  ZVD~!T(jQ;O%  ",
"  ZVF^YRWh/5O%  ",
"IGAVDUELdfk-+%o.",
"  ZVPZni03:X#&  ",
"IGAB Snp03=o %o.",
"   Mmxsyq61,>   ",
"    blatw74<    ",
"    v a e6 <    ",
"    c a e6 <    "
};
