<?xml version="1.0" standalone="no"?>
<!DOCTYPE svg PUBLIC "-//W3C//DTD SVG 20010904//EN"
 "http://www.w3.org/TR/2001/REC-SVG-20010904/DTD/svg10.dtd">
<svg version="1.0" xmlns="http://www.w3.org/2000/svg"
 width="1024.000000pt" height="1024.000000pt" viewBox="0 0 1024.000000 1024.000000"
 preserveAspectRatio="xMidYMid meet">

<g transform="translate(0.000000,1024.000000) scale(0.100000,-0.100000)"
fill="#000000" stroke="none">
<path d="M5727 8804 c-37 -8 -137 -39 -221 -69 -151 -53 -155 -53 -172 -34
-25 28 -58 24 -206 -27 -162 -56 -178 -65 -178 -103 0 -26 -6 -31 -47 -45 -45
-15 -48 -15 -68 4 -12 11 -31 20 -44 20 -32 0 -313 -99 -333 -117 -10 -9 -18
-28 -18 -43 0 -23 -7 -28 -49 -42 -47 -15 -51 -15 -67 3 -9 11 -30 19 -47 19
-31 0 -312 -94 -333 -111 -7 -6 -14 -24 -16 -41 -3 -27 -9 -33 -57 -51 l-55
-20 -14 22 c-21 31 -54 27 -216 -28 -184 -63 -186 -64 -186 -104 0 -30 -4 -33
-59 -54 l-59 -21 -23 24 c-12 13 -29 24 -37 24 -28 0 -336 -110 -354 -127 -11
-9 -17 -27 -16 -42 3 -23 -3 -28 -57 -47 l-60 -22 -28 26 -28 26 -162 -53
c-211 -70 -217 -73 -217 -115 0 -33 -2 -35 -67 -57 l-67 -22 -17 22 c-9 11
-28 21 -42 21 -28 0 -345 -106 -364 -122 -7 -6 -13 -25 -13 -42 0 -30 -3 -33
-71 -56 l-71 -25 -15 23 c-10 14 -26 22 -43 22 -36 0 -350 -107 -372 -127 -12
-10 -15 -24 -12 -43 6 -26 3 -28 -87 -59 -171 -60 -286 -129 -380 -227 -67
-71 -102 -129 -124 -208 -27 -91 -19 -127 100 -507 4 -12 -25 -27 -141 -69
-152 -55 -197 -83 -208 -124 -7 -28 21 -125 71 -246 19 -47 55 -145 79 -219
45 -136 64 -171 93 -171 20 0 91 -146 106 -220 4 -19 10 -39 14 -45 4 -5 8
-19 8 -31 2 -31 56 -118 81 -129 22 -10 64 -84 77 -138 4 -15 11 -24 16 -21 5
3 6 -3 2 -12 -4 -12 -3 -15 5 -10 8 4 10 2 6 -8 -3 -8 1 -30 9 -48 8 -18 29
-71 47 -118 18 -47 36 -89 40 -93 6 -7 25 -13 51 -16 4 -1 26 -49 49 -108 24
-60 48 -117 54 -128 6 -11 11 -22 11 -25 0 -3 11 -34 23 -70 32 -92 63 -144
90 -148 12 -2 29 -16 37 -32 14 -26 92 -235 147 -394 17 -49 26 -61 57 -74 20
-9 39 -15 43 -14 9 2 28 -43 113 -273 42 -115 83 -216 90 -223 6 -7 26 -14 43
-14 30 -1 33 -5 61 -77 15 -42 38 -106 51 -144 12 -37 26 -67 31 -67 6 0 8 -4
5 -8 -9 -15 21 -109 59 -187 37 -74 38 -75 75 -75 l38 0 27 -73 c15 -39 36
-91 47 -114 10 -23 21 -54 24 -70 3 -15 9 -30 15 -31 5 -2 7 -7 4 -11 -4 -8
64 -213 84 -249 18 -34 58 -54 82 -41 18 9 20 17 15 67 -20 197 -20 185 10
211 27 23 312 157 319 149 1 -1 58 -113 125 -247 126 -253 163 -310 240 -365
229 -165 518 -232 781 -182 118 22 162 39 404 154 l210 99 47 -86 c43 -78 47
-92 48 -154 0 -64 1 -68 31 -86 17 -10 48 -21 68 -25 38 -6 39 -6 43 -61 3
-31 9 -60 15 -66 7 -7 47 8 125 47 l116 57 4 71 c5 68 8 75 66 156 57 80 61
89 68 157 7 83 0 107 -57 192 -21 31 -35 59 -33 63 3 4 42 27 88 50 l83 44 34
-51 c18 -27 32 -54 31 -59 -2 -4 2 -14 9 -22 6 -7 12 -43 13 -79 2 -56 6 -69
30 -94 15 -16 43 -32 62 -36 37 -7 51 -34 41 -83 -14 -70 27 -72 148 -9 l100
52 8 55 c5 30 10 65 13 76 2 12 28 53 57 90 69 89 75 101 83 167 8 67 -1 122
-24 145 -22 22 -62 86 -62 99 0 5 36 27 81 48 l81 40 31 -39 c38 -48 57 -97
57 -152 0 -82 9 -102 56 -125 44 -21 44 -21 44 -73 0 -41 5 -57 20 -71 20 -18
23 -18 121 31 56 27 105 57 110 66 5 9 9 36 9 60 0 54 12 76 90 171 48 59 65
88 71 124 10 51 2 163 -11 163 -14 0 -73 101 -64 109 5 5 39 25 75 45 l66 36
26 -33 c39 -52 58 -106 64 -184 6 -75 16 -93 66 -117 19 -10 23 -22 27 -81 4
-52 9 -70 20 -72 8 -1 60 21 115 50 l100 52 8 50 c5 28 11 60 13 71 4 23 78
128 126 180 50 53 52 212 4 258 -13 11 -30 33 -40 47 l-17 27 65 36 c35 20 69
36 74 36 6 0 21 -17 33 -37 13 -21 28 -41 35 -45 7 -5 15 -46 19 -98 7 -86 8
-91 39 -112 17 -12 33 -23 35 -25 5 -3 2 -100 -3 -130 -3 -12 2 -27 11 -35 13
-10 32 -4 119 42 l104 55 11 55 c16 73 26 92 98 180 61 74 101 164 101 225 0
37 -27 90 -65 128 -20 20 -34 40 -32 44 3 5 34 24 70 42 l64 35 34 -38 c51
-57 53 -64 51 -149 -2 -78 -2 -79 32 -109 l35 -31 -6 -78 c-5 -66 -3 -79 10
-85 9 -3 56 15 109 43 l93 48 24 77 c20 67 33 88 88 150 84 93 107 143 106
229 0 66 -11 98 -44 135 -16 17 -17 24 -7 46 7 14 27 33 44 43 29 16 34 16 63
0 54 -27 69 -64 69 -167 0 -87 1 -91 27 -112 l28 -22 -14 -68 c-12 -64 -12
-69 6 -82 26 -19 30 -19 120 29 l80 42 30 82 c22 60 45 99 88 150 77 89 106
140 113 196 9 61 1 87 -41 137 -40 47 -44 70 -15 70 11 0 20 6 20 14 0 8 7 17
16 20 8 3 12 2 9 -4 -3 -6 -2 -10 4 -10 5 0 12 4 15 9 3 5 17 11 31 13 49 10
90 -75 82 -165 -3 -29 -7 -57 -8 -62 -5 -17 11 -53 26 -59 19 -7 19 -44 0 -89
-18 -45 -19 -81 -2 -95 10 -9 29 -4 73 17 123 58 140 73 164 147 25 78 26 79
110 179 66 76 100 146 100 203 0 31 -52 146 -71 158 -19 11 -8 38 34 83 53 56
91 120 119 198 136 385 158 458 158 533 0 124 -39 231 -121 333 -36 46 -38 52
-22 60 10 6 19 11 21 12 1 1 11 28 22 59 18 51 19 59 6 85 -19 36 -269 273
-302 285 -19 8 -39 3 -96 -22 -54 -24 -74 -29 -85 -21 -17 15 -17 29 0 29 15
0 31 29 47 89 8 32 8 46 -4 68 -18 36 -261 265 -291 276 -17 6 -42 0 -90 -22
-72 -33 -98 -32 -67 3 11 11 25 44 32 73 15 64 4 89 -72 157 -29 27 -85 80
-124 117 -83 80 -99 83 -189 44 -54 -24 -89 -29 -48 -6 28 14 49 112 33 151
-6 15 -67 80 -136 144 -133 124 -143 129 -211 101 -20 -8 -38 -13 -40 -11 -3
2 0 29 7 60 9 45 9 60 -3 83 -19 37 -232 236 -260 244 -12 3 -39 0 -61 -8 -21
-7 -41 -13 -43 -13 -2 0 -1 24 2 54 9 69 -3 92 -97 181 -138 131 -147 138
-187 132 -20 -3 -43 -8 -53 -12 -14 -6 -16 0 -11 55 l6 61 -117 116 -117 116
-56 -6 -55 -6 6 40 c9 55 -6 78 -122 192 -111 109 -124 113 -217 78 l-50 -19
-131 128 c-113 111 -143 134 -215 169 -139 67 -211 82 -394 87 -118 3 -178 0
-228 -12z m648 -1526 c21 -24 59 -65 84 -93 391 -422 442 -480 460 -528 9 -24
8 -27 -11 -27 -20 0 -49 27 -143 131 -22 24 -132 145 -245 269 -113 124 -213
234 -222 244 -26 29 -22 46 11 46 21 0 38 -11 66 -42z m118 -271 c231 -249
250 -270 301 -332 54 -65 89 -147 49 -114 -9 8 -113 122 -232 254 -119 132
-234 260 -257 285 -77 83 -94 108 -88 124 3 9 7 16 8 16 2 0 100 -105 219
-233z m-989 -19 c22 -26 345 -405 428 -501 204 -237 341 -321 558 -342 197
-20 541 100 657 228 20 23 40 36 49 33 22 -8 18 -17 -33 -80 -59 -72 -126
-113 -265 -166 -169 -63 -219 -74 -353 -74 -128 -1 -193 11 -284 51 -30 13
-56 21 -58 19 -5 -5 101 -56 142 -67 70 -20 191 -29 275 -19 73 8 87 8 97 -6
8 -11 20 -14 50 -8 75 13 205 67 294 121 50 30 93 52 95 50 8 -8 -66 -66 -114
-91 -26 -13 -80 -35 -119 -50 -40 -14 -91 -35 -114 -47 -128 -65 -305 -87
-441 -54 -166 39 -309 136 -433 290 -22 28 -45 55 -51 60 -6 6 -65 75 -130
155 -66 80 -129 156 -141 170 -140 164 -184 223 -179 237 8 20 -17 48 245
-262 248 -293 301 -349 314 -336 7 7 -3 26 -26 53 -20 24 -80 95 -134 159 -54
64 -143 170 -198 235 -54 66 -121 142 -147 171 -46 50 -54 64 -43 75 6 5 55 2
59 -4z m-4393 -505 c56 -98 142 -245 189 -328 48 -82 142 -247 210 -365 68
-118 144 -251 170 -295 26 -44 112 -192 190 -330 79 -137 146 -252 150 -255 3
-3 12 -20 19 -37 7 -18 18 -30 23 -27 7 4 6 9 0 13 -7 4 -8 12 -2 21 15 23 12
34 -5 20 -13 -11 -16 -8 -21 19 -4 17 -10 29 -14 26 -4 -3 -10 2 -14 10 -3 8
0 14 6 12 22 -4 35 -21 30 -39 -6 -26 7 -22 17 5 8 21 9 20 15 -9 4 -18 16
-40 27 -50 20 -18 21 -18 34 0 13 17 14 17 36 -3 25 -23 35 -26 44 -11 7 12
185 14 185 2 0 -8 70 -37 82 -34 19 5 203 -19 212 -28 6 -6 34 -10 64 -10 29
0 63 -6 75 -12 12 -7 56 -15 97 -19 67 -5 91 -11 165 -40 11 -4 72 -10 135
-13 109 -4 113 -4 80 10 -19 9 -51 19 -70 23 -19 4 -34 13 -32 20 2 9 -3 9
-16 2 -14 -8 -24 -6 -38 5 -17 14 -17 15 -1 10 9 -3 17 -1 17 4 0 6 -7 10 -15
10 -9 0 -27 7 -40 16 -13 9 -29 13 -35 9 -5 -3 -10 1 -10 9 0 9 -7 16 -16 16
-8 0 -13 4 -9 9 3 5 -4 12 -15 16 -11 3 -38 24 -61 46 -22 21 -44 39 -47 39
-25 1 -174 232 -159 246 2 2 24 -21 47 -51 52 -67 136 -145 157 -145 9 0 -11
28 -46 66 -68 72 -141 177 -166 237 -14 34 -14 38 0 43 9 4 17 5 19 3 2 -2 26
-38 53 -79 187 -279 518 -422 843 -366 122 22 283 76 384 129 81 43 210 153
235 201 15 27 35 34 46 16 13 -21 -74 -148 -132 -196 -112 -91 -325 -181 -508
-214 -55 -10 -86 -19 -69 -19 30 -1 196 30 239 44 16 5 17 5 5 -4 -13 -9 -12
-11 2 -16 56 -22 319 112 403 205 30 33 55 44 55 25 0 -21 -118 -140 -147
-149 -13 -4 -23 -12 -23 -18 0 -6 -3 -8 -6 -5 -4 4 -32 -8 -63 -25 -31 -17
-84 -46 -118 -64 -34 -17 -59 -35 -55 -40 4 -4 -1 -4 -10 -1 -10 3 -20 2 -23
-2 -2 -5 -21 -12 -42 -16 -28 -5 -33 -9 -22 -16 10 -7 6 -8 -13 -3 -17 4 -28
2 -28 -4 0 -6 -24 -14 -52 -18 -29 -4 -45 -9 -35 -12 9 -2 17 -7 17 -12 0 -13
-40 -20 -120 -21 -74 -1 -74 -1 -40 -14 43 -17 53 -18 45 -5 -4 6 10 10 34 10
24 0 43 -6 48 -14 12 -22 173 -26 191 -6 10 13 14 13 28 -5 11 -14 18 -16 21
-7 7 18 83 16 83 -3 0 -13 15 -15 83 -13 108 4 390 -20 398 -33 4 -6 65 -9
165 -7 87 2 140 2 117 0 -24 -2 -43 -7 -43 -11 0 -11 104 -21 221 -21 85 0 99
-2 99 -16 0 -15 9 -16 62 -10 49 5 65 3 80 -11 11 -9 18 -11 18 -5 0 7 16 12
40 12 29 0 40 -4 40 -15 0 -11 11 -15 40 -15 22 0 40 -4 40 -10 0 -5 18 -10
40 -10 31 0 40 -4 41 -17 0 -12 6 -6 16 15 9 17 19 32 23 32 4 0 14 -15 23
-32 10 -21 16 -27 16 -15 1 23 81 25 81 2 0 -12 16 -15 80 -15 47 0 80 -4 80
-10 0 -5 -7 -10 -15 -10 -8 0 -15 -4 -15 -9 0 -15 72 -25 165 -22 95 3 145 -9
145 -34 0 -8 9 -15 20 -15 11 0 20 5 20 10 0 6 18 10 40 10 22 0 40 -4 40 -10
0 -5 18 -10 40 -10 29 0 40 -4 40 -15 0 -11 11 -15 40 -15 22 0 40 -4 40 -10
0 -5 9 -10 19 -10 10 0 21 -7 25 -15 3 -8 12 -15 21 -15 8 0 15 -4 15 -10 0
-5 7 -10 16 -10 11 0 14 5 10 16 -8 20 2 54 14 54 6 0 12 -11 16 -25 6 -25 24
-35 24 -14 0 5 5 7 12 3 9 -6 9 -9 0 -12 -17 -5 -15 -19 6 -26 9 -3 25 -11 36
-18 15 -10 20 -10 23 0 7 18 83 16 83 -3 0 -11 12 -15 45 -15 39 0 46 -3 60
-30 22 -42 43 -50 134 -50 79 0 81 0 81 -25 0 -24 1 -24 79 -22 43 1 74 5 68
9 -7 4 -23 8 -37 8 -29 0 -58 16 -47 26 3 4 13 2 21 -5 8 -6 41 -13 74 -14 33
-1 55 -5 49 -9 -7 -4 -20 -5 -31 -2 -12 4 -16 2 -12 -5 4 -6 -9 -17 -30 -26
-46 -19 -55 -19 -29 1 l20 16 -20 -4 c-12 -2 -20 -11 -20 -23 0 -13 -8 -21
-22 -23 -13 -2 -23 -8 -23 -13 0 -6 -5 -7 -10 -4 -6 4 -29 8 -53 10 -35 3 -38
2 -18 -6 14 -5 30 -8 38 -5 7 3 15 1 18 -5 4 -5 3 -9 -2 -8 -25 4 -46 -2 -37
-11 7 -7 56 12 154 58 79 38 140 71 134 74 -5 3 -3 3 5 1 7 -2 43 11 80 28 36
17 109 52 161 76 127 60 585 277 840 398 113 54 329 156 480 227 442 208 454
214 503 267 30 32 50 46 58 40 19 -11 -31 -81 -84 -118 -24 -16 -273 -138
-553 -272 -751 -357 -909 -432 -1124 -534 -107 -51 -292 -138 -410 -195 -508
-242 -2939 -1399 -3080 -1465 -85 -41 -183 -80 -216 -89 -80 -21 -250 -21
-329 -1 -126 32 -242 108 -304 199 -15 22 -261 451 -546 951 -871 1531 -1259
2213 -1492 2623 -123 216 -227 400 -230 408 -3 8 1 14 10 14 9 0 56 -70 118
-177z m4021 79 c25 -13 58 -39 73 -58 l26 -34 -27 -25 c-22 -21 -25 -30 -20
-60 4 -19 4 -35 0 -35 -4 0 -28 13 -55 30 -28 17 -64 30 -86 31 -21 1 -51 5
-68 10 -44 13 -180 -22 -214 -55 -15 -14 -49 -32 -76 -40 -53 -16 -58 -16 -47
0 10 16 52 36 177 84 123 48 136 55 129 75 -10 26 100 32 171 10 13 -4 11 -1
-5 9 -67 40 -152 29 -334 -45 -133 -54 -147 -58 -122 -30 13 15 14 20 4 24
-18 7 5 24 51 37 25 7 39 6 50 -3 12 -10 14 -9 8 5 -8 21 7 30 117 70 98 35
175 35 248 0z m3708 -101 c0 -5 -13 -12 -30 -16 -16 -4 -32 -11 -35 -16 -4 -5
-14 -9 -23 -9 -14 1 -14 2 3 12 11 6 22 14 25 18 12 17 60 25 60 11z m-4330
-526 c215 -289 393 -525 395 -525 1 0 58 23 125 51 110 45 126 49 152 38 41
-17 34 -35 -19 -52 -27 -9 -100 -38 -163 -65 l-114 -48 -189 255 c-104 141
-231 312 -281 380 -50 68 -147 198 -215 290 -68 91 -126 174 -128 184 -4 13 1
17 20 17 21 0 81 -76 417 -525z m100 466 c0 -10 -61 -34 -68 -27 -3 4 40 27
66 35 1 1 2 -3 2 -8z m-274 -386 c119 -159 292 -392 385 -516 l169 -227 149
63 c165 71 175 74 180 60 5 -12 3 -13 -164 -84 -189 -80 -185 -80 -221 -30
-16 22 -43 59 -59 82 -17 23 -74 103 -127 177 -53 74 -133 185 -178 245 -44
61 -93 128 -108 150 -28 41 -135 188 -242 331 -61 83 -83 137 -29 74 16 -19
126 -165 245 -325z m1171 240 c3 -9 -3 -25 -12 -35 -10 -11 -14 -20 -9 -20 4
0 -12 -18 -36 -40 -58 -52 -158 -104 -370 -190 l-172 -70 -34 18 -35 18 183
74 c263 106 373 164 437 234 28 30 39 32 48 11z m-19 -157 c-22 -35 -95 -80
-204 -127 -54 -24 -112 -49 -129 -57 -100 -44 -206 -81 -210 -74 -3 4 28 22
67 38 40 17 113 46 162 66 115 48 165 74 251 130 38 25 71 46 73 46 3 0 -2
-10 -10 -22z m-5033 -91 c25 -48 43 -93 39 -100 -4 -6 -4 -9 1 -5 4 4 14 0 20
-9 14 -19 31 -14 227 60 51 20 69 23 77 14 7 -9 -30 -27 -146 -71 -85 -33
-168 -70 -184 -83 -25 -22 -30 -23 -35 -8 -4 10 2 26 16 41 13 13 19 24 14 24
-13 0 -48 68 -47 91 1 11 -2 17 -7 14 -11 -7 -21 40 -13 62 6 16 5 16 -10 4
-15 -12 -17 -12 -11 2 3 8 1 24 -5 35 -11 20 -3 38 10 25 4 -5 28 -47 54 -96z
m8810 53 c3 -5 -19 -21 -51 -35 -66 -29 -64 -29 -64 -12 0 7 21 23 48 34 57
25 59 26 67 13z m-5190 -44 c18 -13 17 -14 -6 -28 -247 -152 -259 -161 -259
-190 0 -15 4 -28 10 -28 5 0 61 34 124 75 130 85 146 93 146 73 0 -15 -23 -32
-165 -121 -43 -27 -85 -56 -93 -63 -19 -20 -26 -18 -90 24 -88 60 -133 73
-236 73 -182 -1 -255 -20 -298 -79 -20 -28 -88 -76 -88 -62 0 37 58 87 168
145 34 17 52 34 52 45 0 32 86 53 196 48 69 -3 89 -1 77 7 -10 5 -61 10 -113
9 -81 0 -107 -5 -177 -31 -85 -32 -126 -56 -178 -104 -24 -21 -35 -25 -52 -18
-31 11 -29 21 12 61 49 47 130 95 217 126 62 22 90 26 183 27 104 0 114 -2
178 -32 38 -18 82 -42 98 -54 l29 -21 43 26 c23 14 69 43 102 65 65 43 91 49
120 27z m-3205 -36 c0 -5 -4 -10 -10 -10 -5 0 -10 5 -10 10 0 6 5 10 10 10 6
0 10 -4 10 -10z m-67 -128 c24 -41 16 -62 -23 -62 -17 0 -48 -11 -68 -25 -20
-14 -45 -25 -55 -25 -18 0 -96 -46 -109 -65 -4 -5 -8 -1 -8 10 0 14 -3 16 -8
7 -6 -9 -12 0 -20 26 -7 22 -12 47 -12 55 0 19 34 39 105 60 28 8 70 24 95 36
59 26 80 23 103 -17z m-50 -407 c2 -5 68 15 146 44 106 40 145 51 153 43 7 -7
10 -13 7 -15 -2 -2 -67 -27 -144 -56 -157 -60 -186 -73 -204 -95 -8 -9 -17
-16 -22 -16 -13 0 -11 34 2 47 8 8 -7 46 -51 137 -35 70 -61 128 -59 130 2 2
13 8 24 14 18 9 25 0 82 -106 34 -65 64 -121 66 -127z m8957 183 c0 -19 -108
-64 -122 -50 -7 7 4 18 38 36 54 28 84 33 84 14z m-8613 -90 c-3 -8 -6 -5 -6
6 -1 11 2 17 5 13 3 -3 4 -12 1 -19z m-61 -114 c13 -14 24 -36 24 -50 0 -20
-9 -29 -47 -45 -27 -11 -61 -23 -78 -26 -16 -3 -36 -10 -42 -16 -7 -5 -22 -7
-33 -4 -13 3 -21 -1 -26 -15 -5 -16 -8 -18 -15 -7 -7 11 -9 11 -9 -2 0 -9 -7
-20 -16 -23 -10 -4 -13 -2 -8 6 5 7 0 9 -13 6 -35 -9 -59 67 -29 91 19 16 237
110 255 111 7 0 24 -11 37 -26z m-101 -314 c38 -71 71 -130 74 -130 3 0 67 24
141 54 97 39 139 51 148 43 7 -6 9 -13 5 -17 -4 -3 -74 -32 -155 -64 -82 -32
-164 -69 -184 -82 -39 -27 -62 -24 -41 6 12 17 6 35 -55 154 l-68 136 28 14
c15 9 30 15 33 16 3 0 36 -58 74 -130z m2712 24 c-3 -3 -12 -4 -19 -1 -8 3 -5
6 6 6 11 1 17 -2 13 -5z m-2297 -44 c0 -5 -4 -10 -10 -10 -5 0 -10 5 -10 10 0
6 5 10 10 10 6 0 10 -4 10 -10z m-82 -125 c-3 -13 -1 -23 4 -22 6 1 15 -6 21
-15 9 -14 8 -20 -8 -32 -11 -8 -24 -12 -29 -9 -5 4 -6 1 -2 -5 8 -13 -43 -41
-63 -34 -8 3 -11 0 -7 -7 5 -7 1 -9 -9 -5 -18 7 -67 -15 -60 -26 2 -3 -18 -16
-45 -27 -55 -24 -64 -19 -90 45 -11 28 -11 36 1 48 23 22 231 112 263 113 25
1 28 -2 24 -24z m-115 -264 c84 -157 106 -196 115 -199 5 -1 71 22 146 52 112
45 137 52 147 40 9 -11 6 -16 -12 -23 -13 -6 -91 -38 -174 -72 -82 -33 -160
-70 -173 -82 -19 -17 -25 -19 -32 -8 -5 8 -4 21 2 31 8 13 -5 46 -59 153 -38
75 -67 141 -63 146 5 9 45 29 61 30 3 1 22 -30 42 -68z m2623 -16 c17 -13 17
-14 2 -15 -10 0 -18 -5 -18 -11 0 -5 -5 -7 -11 -3 -8 4 -7 9 2 15 12 8 11 11
-1 19 -8 5 -10 10 -4 10 5 0 19 -7 30 -15z m69 -25 c3 -5 -1 -10 -9 -10 -9 0
-16 5 -16 10 0 6 4 10 9 10 6 0 13 -4 16 -10z m-2243 -62 c-9 -9 -12 -7 -12
12 0 19 3 21 12 12 9 -9 9 -15 0 -24z m2988 -8 c0 -5 -7 -10 -15 -10 -8 0 -15
5 -15 10 0 6 7 10 15 10 8 0 15 -4 15 -10z m-3055 -96 c9 -9 13 -24 10 -35 -4
-11 -2 -19 5 -19 6 0 10 -12 8 -26 -3 -24 -16 -32 -121 -74 -65 -27 -125 -54
-134 -62 -12 -9 -15 -9 -9 0 4 7 2 12 -6 13 -7 1 -20 2 -28 3 -19 1 -38 72
-24 93 12 19 230 121 261 122 12 1 29 -6 38 -15z m-100 -319 c92 -174 98 -185
107 -185 5 0 68 25 140 55 123 51 158 60 158 37 0 -5 -77 -42 -171 -82 -94
-40 -183 -83 -199 -97 -30 -25 -46 -18 -35 16 4 13 -19 68 -65 161 -39 78 -69
149 -66 157 7 16 68 45 77 35 3 -4 28 -47 54 -97z m5129 68 c-11 -12 -18 -13
-27 -4 -8 8 -7 11 6 11 9 0 17 5 17 11 0 5 5 7 10 4 6 -4 4 -12 -6 -22z m2571
-127 l76 -85 167 84 c120 59 171 80 180 73 31 -26 9 -44 -154 -123 -116 -56
-163 -83 -159 -93 3 -8 -3 -16 -15 -19 -14 -4 -20 -14 -20 -35 0 -48 -21 -121
-32 -110 -7 7 -4 28 7 61 9 28 14 54 11 59 -3 5 -7 21 -10 37 -3 16 -12 33
-21 38 -8 4 -13 12 -11 16 3 5 -7 19 -22 32 l-27 24 20 -25 20 -25 -22 19
c-13 10 -20 23 -17 27 3 5 -15 33 -40 63 -43 50 -48 66 -20 66 7 0 47 -38 89
-84z m-1860 24 c13 -6 15 -9 5 -9 -8 0 -22 4 -30 9 -18 12 -2 12 25 0z m-5391
-35 c3 -8 1 -15 -4 -15 -6 0 -10 7 -10 15 0 8 2 15 4 15 2 0 6 -7 10 -15z
m7706 -10 c0 -9 -60 -45 -160 -95 -88 -44 -162 -80 -165 -80 -3 0 -5 8 -5 18
0 12 45 39 157 95 86 42 160 77 165 77 4 0 8 -7 8 -15z m-7758 -141 c25 -45
40 -88 18 -54 -8 12 -11 12 -27 -3 -11 -9 -37 -23 -59 -31 -22 -7 -74 -37
-117 -66 -83 -56 -112 -61 -112 -18 -1 14 4 24 10 22 5 -2 24 8 40 22 22 19
25 24 10 20 -17 -5 -16 -3 5 14 33 26 23 25 -41 -5 -57 -26 -84 -21 -63 12 11
18 282 145 299 140 6 -2 22 -26 37 -53z m6703 -134 l77 -89 170 85 c137 69
172 83 184 74 7 -7 14 -18 14 -24 0 -6 -76 -49 -170 -96 -134 -67 -169 -88
-165 -101 4 -11 -2 -19 -17 -22 -20 -6 -23 -13 -24 -62 0 -31 -6 -61 -12 -67
-16 -16 -16 17 -1 60 15 43 -4 96 -53 150 -21 23 -36 46 -34 51 3 5 -13 29
-35 55 -37 42 -46 76 -21 76 5 0 44 -40 87 -90z m-6965 26 c0 -2 -8 -10 -17
-17 -16 -13 -17 -12 -4 4 13 16 21 21 21 13z m7430 -43 c0 -13 -48 -42 -170
-104 -151 -75 -170 -83 -170 -64 0 11 10 25 23 30 12 6 21 16 20 23 -2 7 4 9
14 5 10 -4 14 -2 10 4 -5 7 0 9 11 6 21 -5 128 51 125 66 -1 5 5 7 15 4 9 -2
37 7 62 21 55 30 60 31 60 9z m-7333 -65 c6 -7 41 -71 78 -143 37 -71 71 -134
75 -138 4 -4 69 19 146 52 103 44 142 57 152 49 7 -6 9 -15 5 -19 -4 -4 -82
-40 -173 -80 -91 -39 -179 -83 -197 -96 -32 -24 -51 -18 -39 13 3 8 -30 86
-74 174 -84 168 -84 167 -29 189 33 13 45 13 56 -1z m7572 -35 c0 -10 -8 -40
-18 -67 -24 -68 -36 -42 -14 28 18 54 34 74 32 39z m-7065 -144 c-11 -18 -21
-8 -21 18 0 25 0 25 13 8 7 -10 11 -22 8 -26z m5746 -49 c50 -62 78 -89 89
-85 9 3 86 41 171 85 85 44 162 79 170 77 8 -1 16 -10 18 -19 3 -13 -37 -37
-170 -104 -188 -94 -184 -91 -176 -100 3 -3 61 22 127 56 67 33 127 58 133 54
6 -4 8 -3 5 3 -8 13 68 47 84 38 7 -5 10 -4 6 1 -3 5 3 10 14 10 22 0 22 1 8
-28 -7 -16 -63 -50 -185 -111 -152 -76 -174 -85 -174 -67 0 21 -8 24 -34 14
-11 -4 -16 -20 -17 -53 -1 -25 -4 -57 -8 -71 -6 -21 -8 -22 -13 -8 -4 9 -3 32
3 50 16 59 11 84 -36 147 -25 34 -45 66 -45 72 0 6 -18 33 -41 60 -38 46 -43
69 -16 69 7 0 46 -41 87 -90z m-5815 -62 c9 -28 9 -27 25 -60 18 -38 -6 -75
-57 -84 -21 -3 -62 -17 -91 -30 -29 -13 -57 -24 -62 -24 -5 0 -26 -16 -45 -36
-25 -24 -43 -34 -56 -31 -10 3 -19 1 -19 -4 0 -5 -6 -9 -14 -9 -9 0 -15 21
-20 71 -9 91 -6 96 157 170 137 64 171 71 182 37z m6537 -98 c-10 -30 -21 -49
-25 -43 -10 16 23 117 34 106 6 -6 2 -30 -9 -63z m-1361 -155 c44 -55 81 -94
92 -95 10 0 16 4 13 9 -7 11 43 33 56 25 7 -5 8 -2 3 6 -5 8 -3 11 6 8 14 -6
88 29 101 47 4 6 8 6 8 1 0 -5 9 -1 20 9 12 10 30 19 41 20 12 1 24 6 27 12 4
5 19 13 35 17 16 4 27 13 27 23 0 13 4 11 20 -7 11 -13 20 -26 20 -29 0 -4
-83 -48 -185 -98 -134 -67 -183 -97 -179 -107 3 -9 -3 -17 -15 -21 -18 -5 -21
-14 -21 -66 0 -32 -4 -59 -10 -59 -5 0 -7 26 -3 64 6 64 6 65 -41 130 -25 35
-46 68 -46 71 0 4 -16 29 -35 55 -38 51 -42 65 -22 73 6 3 12 6 13 6 0 1 34
-42 75 -94z m509 9 c0 -8 -4 -14 -10 -14 -5 0 -10 -6 -10 -13 0 -7 -57 -41
-127 -77 -187 -95 -243 -120 -243 -110 0 5 64 43 143 84 142 76 227 125 216
126 -4 0 -86 -38 -183 -85 -97 -46 -176 -81 -176 -77 0 12 343 180 367 180 13
0 23 -7 23 -14z m-5827 -9 c4 -8 50 -49 104 -93 96 -76 114 -91 165 -136 14
-12 31 -20 39 -18 43 13 129 56 129 65 0 11 29 -23 30 -34 0 -4 -73 -39 -162
-80 -90 -40 -183 -86 -207 -102 -32 -21 -46 -25 -52 -16 -4 7 -5 18 -2 25 3 7
-32 84 -76 170 -45 87 -81 163 -81 171 0 7 21 24 48 37 56 30 58 30 65 11z
m6077 -150 c-7 -31 -17 -51 -20 -44 -11 17 16 117 28 104 3 -2 -1 -30 -8 -60z
m-5560 -41 c0 -8 -4 -14 -10 -14 -5 0 -10 9 -10 21 0 11 5 17 10 14 6 -3 10
-13 10 -21z m4616 -50 c14 4 24 2 24 -4 0 -5 -4 -10 -9 -10 -5 0 -11 -8 -14
-17 -2 -11 -74 -53 -182 -108 -120 -61 -180 -97 -185 -111 -5 -12 -18 -24 -29
-27 -15 -4 -22 2 -30 24 -5 16 -26 50 -45 75 -20 26 -36 51 -36 57 0 5 -16 31
-35 57 -26 35 -32 49 -23 58 7 7 15 12 19 12 4 0 37 -40 73 -90 37 -49 69 -90
72 -90 3 0 21 7 42 15 29 13 34 18 22 25 -11 7 -8 10 13 10 18 0 26 4 21 11
-4 7 0 9 14 5 14 -5 39 2 69 17 26 13 76 38 111 55 40 21 62 38 62 49 1 17 1
17 11 0 8 -13 18 -17 35 -13z m-4700 -71 c3 -10 10 -25 15 -33 33 -53 34 -62
10 -81 -13 -10 -44 -25 -69 -33 -58 -17 -238 -102 -247 -116 -13 -20 -32 -10
-32 18 0 15 -3 45 -7 67 -4 22 -3 46 2 52 10 16 281 142 305 143 10 0 20 -8
23 -17z m4746 -15 c-15 -15 -26 -4 -18 18 5 13 9 15 18 6 9 -9 9 -15 0 -24z
m-281 -3 c-18 -8 -36 -15 -40 -15 -13 1 45 29 59 29 8 0 0 -6 -19 -14z m259
-24 c0 -5 -10 -11 -22 -14 -22 -6 -22 -6 -4 8 23 17 26 18 26 6z m-380 -31 c0
-5 -4 -10 -9 -10 -5 0 -18 -3 -28 -6 -16 -6 -16 -5 2 9 23 19 35 21 35 7z
m684 -62 c-8 -50 -23 -85 -24 -53 0 38 13 95 21 95 5 0 6 -19 3 -42z m-4889
-28 c11 -12 21 -16 25 -10 3 5 41 -57 85 -138 43 -81 87 -157 98 -169 l20 -23
-84 -39 c-239 -111 -286 -134 -315 -156 -32 -24 -59 -18 -47 11 2 7 -36 91
-86 187 -86 164 -90 175 -73 190 15 14 337 166 353 167 3 0 14 -9 24 -20z m99
4 c3 -8 2 -12 -4 -9 -6 3 -10 10 -10 16 0 14 7 11 14 -7z m-637 -26 c-3 -8 -6
-5 -6 6 -1 11 2 17 5 13 3 -3 4 -12 1 -19z m4403 -63 c7 -9 21 -13 31 -10 24
8 25 -13 1 -41 -9 -12 -99 -64 -199 -115 -128 -65 -183 -98 -183 -110 0 -9 -9
-19 -20 -22 -15 -4 -24 3 -37 26 -17 35 -69 116 -116 185 -28 42 -30 72 -4 72
7 0 40 -38 72 -85 62 -91 73 -96 120 -55 11 10 26 15 34 12 8 -3 11 0 7 7 -5
7 1 11 14 11 12 0 19 4 16 9 -3 5 0 9 7 8 31 -1 48 4 43 12 -7 11 49 32 59 23
4 -4 5 0 3 8 -2 10 5 15 19 15 13 0 23 5 24 10 1 14 27 27 39 20 17 -11 49 5
43 21 -7 19 11 18 27 -1z m294 -39 c-3 -21 -9 -35 -11 -32 -3 3 -2 21 1 42 4
20 10 34 12 31 3 -3 2 -21 -2 -41z m-3980 -22 c3 -8 2 -12 -4 -9 -6 3 -10 10
-10 16 0 14 7 11 14 -7z m3762 -40 c-5 -13 -10 -14 -18 -6 -6 6 -8 18 -4 28 5
13 10 14 18 6 6 -6 8 -18 4 -28z m-3721 -34 c9 -16 13 -30 11 -30 -3 0 -12 14
-21 30 -9 17 -13 30 -11 30 3 0 12 -13 21 -30z m3295 -20 c-8 -5 -19 -10 -25
-10 -5 0 -3 5 5 10 8 5 20 10 25 10 6 0 3 -5 -5 -10z m-3251 -59 c8 -14 7 -20
-4 -25 -11 -4 -15 2 -15 19 0 30 6 32 19 6z m3978 -48 c-3 -10 -5 -4 -5 12 0
17 2 24 5 18 2 -7 2 -21 0 -30z m-1070 -78 c12 -8 28 -12 36 -9 8 3 17 -2 21
-13 4 -10 2 -19 -3 -21 -6 -2 -11 -9 -11 -15 0 -7 -93 -59 -205 -117 -130 -66
-204 -109 -201 -117 3 -6 -4 -15 -15 -18 -24 -8 -20 -12 -53 50 -15 28 -49 88
-77 134 -47 76 -50 85 -35 99 8 9 17 14 19 11 2 -2 25 -36 51 -75 25 -40 52
-77 60 -83 10 -9 49 6 165 62 83 40 148 77 144 82 -4 4 -2 5 4 1 15 -8 56 11
48 24 -3 4 5 6 17 3 19 -4 20 -3 8 6 -8 6 -10 11 -5 11 6 0 20 -7 32 -15z m83
-94 c0 -11 -4 -22 -9 -25 -11 -7 -23 22 -15 35 9 16 24 10 24 -10z m-3475
-126 c9 -40 -3 -27 -15 15 -5 19 -6 29 -1 24 5 -5 12 -22 16 -39z m2680 -135
c3 -5 17 -10 30 -10 27 0 43 -33 26 -53 -5 -7 -104 -59 -220 -117 -145 -72
-211 -110 -211 -121 0 -9 -9 -19 -20 -22 -17 -4 -26 5 -52 56 -17 34 -51 95
-76 136 -33 55 -42 78 -35 90 18 28 28 20 76 -59 l48 -80 32 14 c18 7 61 27
97 44 36 16 93 42 127 57 35 15 60 31 57 36 -3 5 1 7 8 4 7 -3 29 4 48 14 40
23 56 25 65 11z m85 -99 c0 -23 -16 -36 -25 -21 -9 14 1 40 15 40 5 0 10 -9
10 -19z"/>
<path d="M2360 4841 c0 -5 7 -12 16 -15 22 -9 24 -8 24 9 0 8 -9 15 -20 15
-11 0 -20 -4 -20 -9z"/>
<path d="M2071 4833 c-1 -6 8 -28 20 -47 22 -38 37 -50 19 -16 -6 11 -8 26 -4
32 4 7 3 8 -5 4 -7 -4 -15 2 -20 16 -6 13 -10 18 -10 11z"/>
<path d="M2136 4707 c3 -10 9 -15 12 -12 3 3 0 11 -7 18 -10 9 -11 8 -5 -6z"/>
<path d="M3370 4691 c8 -6 28 -11 44 -11 21 0 27 -4 22 -15 -3 -8 -1 -15 4
-15 6 0 10 7 10 15 0 12 22 15 118 18 l117 3 -140 2 c-77 1 -151 5 -165 8 -20
4 -22 3 -10 -5z"/>
<path d="M3373 4663 c9 -2 23 -2 30 0 6 3 -1 5 -18 5 -16 0 -22 -2 -12 -5z"/>
<path d="M4328 4563 c7 -3 16 -2 19 1 4 3 -2 6 -13 5 -11 0 -14 -3 -6 -6z"/>
<path d="M5975 4320 c3 -5 10 -10 16 -10 5 0 9 5 9 10 0 6 -7 10 -16 10 -8 0
-12 -4 -9 -10z"/>
<path d="M6670 4161 c0 -9 24 -21 41 -21 5 0 9 7 9 15 0 9 -9 15 -25 15 -14 0
-25 -4 -25 -9z"/>
<path d="M6883 3943 c0 -9 6 -9 21 -1 30 15 30 16 3 14 -13 0 -24 -6 -24 -13z"/>
<path d="M6794 3918 c-4 -7 -4 -10 1 -6 4 4 15 2 24 -5 14 -11 14 -10 2 6 -16
20 -18 21 -27 5z"/>
<path d="M6768 3902 c10 -7 6 -12 -18 -22 -17 -7 -29 -14 -27 -17 2 -2 24 6
48 17 24 11 39 20 32 20 -6 0 -20 3 -30 6 -13 4 -14 3 -5 -4z"/>
<path d="M6630 3820 c-8 -5 -10 -10 -5 -10 6 0 17 5 25 10 8 5 11 10 5 10 -5
0 -17 -5 -25 -10z"/>
<path d="M6565 3790 c-3 -6 1 -7 9 -4 18 7 21 14 7 14 -6 0 -13 -4 -16 -10z"/>
<path d="M6490 3750 c-9 -6 -10 -10 -3 -10 6 0 15 5 18 10 8 12 4 12 -15 0z"/>
<path d="M4730 6480 c0 -5 5 -10 11 -10 5 0 7 5 4 10 -3 6 -8 10 -11 10 -2 0
-4 -4 -4 -10z"/>
<path d="M425 6010 c3 -5 8 -10 11 -10 2 0 4 5 4 10 0 6 -5 10 -11 10 -5 0 -7
-4 -4 -10z"/>
<path d="M575 5760 c-3 -6 1 -7 9 -4 18 7 21 14 7 14 -6 0 -13 -4 -16 -10z"/>
<path d="M780 5299 c0 -5 5 -7 10 -4 6 3 10 8 10 11 0 2 -4 4 -10 4 -5 0 -10
-5 -10 -11z"/>
<path d="M1157 4901 c-86 -38 -124 -61 -100 -61 7 0 14 4 17 9 3 5 40 21 81
36 41 15 80 34 86 41 15 18 18 19 -84 -25z"/>
<path d="M1506 4461 c-21 -23 -4 -38 18 -15 17 17 21 34 8 34 -5 0 -17 -9 -26
-19z"/>
<path d="M1791 3966 c-8 -9 -20 -16 -27 -16 -8 0 -14 -4 -14 -10 0 -11 22 -12
58 -2 20 6 21 9 9 25 -12 17 -14 17 -26 3z"/>
<path d="M1965 3361 c-55 -20 -86 -34 -82 -37 7 -7 107 28 107 38 0 4 -1 8 -2
7 -2 -1 -12 -4 -23 -8z"/>
<path d="M2070 3350 c0 -5 5 -10 10 -10 6 0 10 5 10 10 0 6 -4 10 -10 10 -5 0
-10 -4 -10 -10z"/>
<path d="M1810 3289 c0 -5 5 -7 10 -4 6 3 10 8 10 11 0 2 -4 4 -10 4 -5 0 -10
-5 -10 -11z"/>
<path d="M2355 2793 c-18 -14 -18 -15 -2 -9 10 3 23 6 28 6 5 0 9 5 9 10 0 14
-12 12 -35 -7z"/>
<path d="M9030 3935 c7 -9 15 -13 17 -11 7 7 -7 26 -19 26 -6 0 -6 -6 2 -15z"/>
<path d="M9114 3909 c-3 -6 -1 -16 5 -22 8 -8 11 -5 11 11 0 24 -5 28 -16 11z"/>
<path d="M9066 3693 c-6 -14 -5 -15 5 -6 7 7 10 15 7 18 -3 3 -9 -2 -12 -12z"/>
<path d="M9132 3670 c-14 -23 -15 -30 -3 -30 8 0 24 41 18 47 -2 1 -8 -7 -15
-17z"/>
<path d="M8490 3673 c1 -13 29 -59 30 -48 0 21 -13 55 -21 55 -5 0 -9 -3 -9
-7z"/>
<path d="M8975 3460 c-10 -11 -13 -20 -8 -20 13 0 38 29 31 35 -3 3 -13 -4
-23 -15z"/>
<path d="M8550 3405 c0 -8 5 -15 10 -15 6 0 10 7 10 15 0 8 -4 15 -10 15 -5 0
-10 -7 -10 -15z"/>
<path d="M7930 3101 c0 -12 5 -21 10 -21 6 0 10 6 10 14 0 8 -4 18 -10 21 -5
3 -10 -3 -10 -14z"/>
<path d="M5200 1990 c-13 -8 -12 -10 3 -10 9 0 17 5 17 10 0 12 -1 12 -20 0z"/>
<path d="M5120 1947 c0 -8 6 -20 14 -26 12 -10 13 -8 9 9 -7 25 -23 37 -23 17z"/>
<path d="M5960 1909 c0 -5 5 -7 10 -4 6 3 10 8 10 11 0 2 -4 4 -10 4 -5 0 -10
-5 -10 -11z"/>
<path d="M5173 1795 c0 -33 2 -45 4 -27 2 18 2 45 0 60 -2 15 -4 0 -4 -33z"/>
<path d="M5046 1514 c-11 -28 -6 -38 9 -18 8 10 15 22 15 27 0 13 -18 7 -24
-9z"/>
</g>
</svg>
